<svg xmlns="http://www.w3.org/2000/svg" xml:space="preserve" baseProfile="tiny-ps" version="1.2" viewBox="0 0 600 600"><path fill="#FFFEFE" d="M344 601H1V1h600v600H344m86.137-289.321 14.916-71.366h-16.57l-10.268 47.669c-3.25-5.412-5.507-10.737-7.728-16.077-4.011-9.642-7.935-19.323-12.084-28.906-.544-1.256-2.146-2.807-3.351-2.892-4.743-.334-9.524-.137-14.119-.137l-16.76 78.76h16.805l10.535-49.394c2.197 5.133 4 9.167 5.661 13.258 4.675 11.514 9.259 23.065 14 34.551.34.823 1.646 1.732 2.532 1.763 4.938.17 9.886.081 14.687.081.656-2.598 1.143-4.533 1.744-7.31m-91.639-7.108h-27.605c1.132-5.341 2.218-9.86 3.017-14.43.629-3.592 2.386-4.746 6.1-4.664 11.81.26 23.63.096 35.666.096l3.645-15.06h-40.867c.778-3.92 1.626-7.25 2.064-10.635.532-4.107 2.522-5.307 6.674-5.2 12.123.312 24.259.11 36.746.11 1.06-5.001 2.04-9.625 3.14-14.823-19.84 0-38.964-.046-58.086.136-.966.01-2.513 1.864-2.78 3.08-4.262 19.473-8.372 38.98-12.486 58.486-1.184 5.614-2.27 11.248-3.429 17.006h63.281l2.832-14.1c-6.28 0-11.597 0-17.912-.002m-195.314 3.64c.989 1.32 1.794 2.842 2.995 3.926 11.508 10.392 36.387 11.116 48.395 1.203 13.128-10.837 12.516-30.626-4.445-37.646-6.853-2.836-13.528-6.213-19.935-9.943-1.778-1.036-3.267-4.283-3.121-6.394.129-1.864 2.37-4.312 4.282-5.2 8.928-4.142 16.27-.444 21.29 10.322l15.932-.822c.42-8.05-2.971-14.116-8.638-18.445-10.862-8.299-23.166-7.91-35.596-4.219-6.392 1.898-11.095 6.14-13.278 12.414-4.722 13.569-.132 23.055 13.125 28.855 6.358 2.782 12.612 5.876 18.643 9.303 3.36 1.909 4.083 6.928 1.497 9.575-5.097 5.216-11.718 4.946-18.241 3.896-5.302-.853-8.733-3.769-8.884-9.609-.032-1.242-.425-2.474-.66-3.756l-17.837.923c1.533 5.557 2.83 10.258 4.476 15.618m-21.842-34.396c-1.512-10.19-2.906-20.4-4.683-30.544-.225-1.286-2.371-2.997-3.785-3.163-3.779-.443-7.678.167-11.465-.242-3.89-.421-5.728 1.589-7.408 4.524-10.948 19.131-21.974 38.217-32.933 57.342-3.165 5.524-6.193 11.128-9.6 17.266 4.901 0 8.936-.407 12.85.108 4.445.584 6.697-1.505 8.462-5.025 1.559-3.11 2.991-6.342 5.014-9.133 1.04-1.432 3.216-2.786 4.93-2.855 7.65-.303 15.323.032 22.976-.204 3.324-.103 4.308 1.171 4.515 4.252.286 4.24 1.022 8.452 1.549 12.547h17.328c-2.561-14.924-5.058-29.472-7.75-44.873m119.19-30.846c-2.096 1.329-4.33 2.481-6.264 4.013-13.735 10.881-18.117 25.74-17.467 42.478.409 10.52 3.607 19.842 12.994 26.1 10.934 7.288 32.382 6.628 44.263-4.415 5.468-5.082 9.828-11.018 11.686-18.864l-17.308-3.003c-.956 2.112-1.785 4.072-2.72 5.98-3.229 6.596-11.661 11.18-18.576 10.141-5.734-.86-12.023-7.02-12.538-14.802-.57-8.627.825-16.686 4.765-24.094 4.25-7.991 11.04-12.632 20.608-12.275 8.104.303 11.66 5.33 13.218 12.691l16.226-1.825c1.284-9.005-7.327-20.535-15.735-23.707-11.023-4.157-21.821-3.391-33.153 1.582m226.463 50.27-5.747 25.767c5.001 0 9.47-.229 13.901.074 3.373.23 4.628-1.083 5.281-4.254 3.387-16.425 7.073-32.788 10.44-49.217 2.211-10.789 2.049-10.822 13.026-10.822 13.453 0 13.456 0 14.518-13.44.023-.287-.198-.593-.367-1.059h-63.029l-2.987 14.503h22.951a20287.41 20287.41 0 0 1-7.987 38.448m85.547-38.18 6.944-7.747c-9.522-10.21-18.675-20.049-27.877-29.843-.734-.782-1.8-1.784-2.71-1.782-4.555.008-9.11.316-14.579.56l26.598 30.965-27.482 31.093c5.423 0 9.597.37 13.662-.134 2.549-.316 5.553-1.335 7.283-3.092 6.149-6.248 11.839-12.948 18.161-20.02M309.735 375.264v5.557h6.415c0-4.826-.324-9.484.19-14.049.163-1.453 2.551-2.657 3.921-3.975.934 1.4 2.56 2.745 2.672 4.206.35 4.571.128 9.186.128 13.703h6.26c0-5.646.144-10.965-.04-16.273-.19-5.45-5.278-8.508-10.257-6.293-1.334.594-2.523 1.513-3.778 2.283l-.12-1.523h-18.662v21.884h6.281c0-4.93-.268-9.748.179-14.498.12-1.269 2.424-2.332 3.725-3.49 1.02 1.178 2.683 2.238 2.925 3.558.473 2.58.153 5.306.161 8.91m170.356-17.751-16.894 1.245v22.312l5.452-.281c.32-4.858.525-9.158.908-13.443.495-5.533 5.375-4.136 8.373-4.442 3.388-.346 2.363 3.164 2.497 5.3.207 3.315-.394 6.91.74 9.849.649 1.683 3.958 2.685 6.251 3.232 1.016.242 2.482-1.402 3.743-2.19l-4.347-5.125v-9.103c1.801-1.853 3.89-3.055 3.923-4.31.031-1.192-2.09-2.44-3.967-4.396l-.401-5.544-1.547-.75c-1.49 2.292-2.978 4.584-4.73 7.646m-64.074.557c-1.269.632-3.627 1.238-3.643 1.901-.238 9.746-.164 19.5-.164 29.634l5.872-.297.5-9.712c7.59 2.749 11.634 2.088 14.276-3.265 1.422-2.881 1.486-6.751 1.199-10.092-.606-7.04-7.081-10.32-13.44-7.43-.967.44-2.515-.4-4.6-.739M177.42 374.918c1.562 4.957 5.502 6.55 10.097 6.56 4.614.008 8.295-1.87 10.115-7.91-2.703.517-5.111.352-6.72 1.408-4.205 2.759-6.04 2.253-7.764-3.402h14.373c.552-6.702-1.371-10.714-5.956-12.996-4.246-2.114-8.285-1.382-11.525 1.763-3.94 3.825-4.422 8.71-2.62 14.577m355.272.853c-3.905 1.974-5.807.262-6.966-4.16h14.936c-.218-9.025-3.54-13.53-9.789-14.085-5.581-.497-10.505 3.552-11.556 9.503-1.138 6.44 2.106 12.478 7.528 14.01 6.035 1.707 10.858-.645 13.484-7.717-2.89.744-5.008 1.29-7.637 2.449m-197.189-13.658c-.57 3.827-1.835 7.71-1.534 11.467.37 4.62 4.898 7.689 9.938 7.963 4.931.269 8.412-2.135 10.442-8.46-3.05 1.034-5.435 1.395-7.3 2.576-3.204 2.029-5.696.889-6.85-4.166h14.481c-.133-5.81-.751-10.657-6.256-13.031-4.874-2.102-9.04-.894-12.92 3.65m-280.563 3.56c1.334 3.385 2.642 6.78 4.006 10.152 2.608 6.447 1.698 8.258-4.983 9.896-.909 3.872 1.335 5.137 4.368 4.207 2.628-.805 6.171-2.246 7.09-4.367 3.822-8.818 6.803-18 10.08-27.015-5.308-1.785-7.147.82-8.23 4.876-.755 2.828-1.88 5.556-3.238 9.482-1.62-4.298-3.152-7.005-3.61-9.882-.774-4.864-3.158-5.958-7.75-4.341a620.024 620.024 0 0 0 2.267 6.992m402.548-3.137c-2.464-5.284-7.168-5.341-11.91-4.888-3.704.354-6.21 2.43-7.05 6.685 2.232.12 4.184-.434 6.159-.887 1.267-.29 2.603-.706 3.843-.549.87.11 1.632 1.09 2.441 1.682-.69.757-1.249 1.914-2.096 2.192-2.187.717-4.568.848-6.752 1.572-3.965 1.314-5.407 4.314-4.398 8.246.999 3.886 4.38 5.503 7.686 4.737 3.768-.873 7.266-1.255 10.976-.322.512.129 1.156-.263 1.26-.29 0-6.071 0-11.711-.16-18.178M108.48 380.061l17.95 1.013c0-7.06.012-13.357-.013-19.654-.004-.976-.18-1.95-.287-3.036h-6.042c0 4.768.403 9.28-.204 13.654-.233 1.675-2.773 3.03-4.261 4.532-1.255-1.616-3.385-3.128-3.592-4.868-.52-4.376-.172-8.854-.172-13.672-2.471.11-4.177.184-7.12.314 1.08 7.544 2.071 14.46 3.74 21.717m-17.46 1.3c5.76-.905 9.282-4.251 10.048-9.989.65-4.877-.58-9.27-5.161-12.002-4.583-2.732-9.091-2.568-13.484.55-3.773 2.679-5.66 8.115-4.362 12.791 1.64 5.904 4.735 8.131 12.959 8.65m274.706-13.52c.291-3.134 1.25-5.558 5.149-5.032 3.926.529 2.651 3.62 2.756 5.836.187 3.953.052 7.922.052 12.133h6.13c0-5.954.265-11.735-.09-17.478-.244-3.938-3.428-6.152-6.92-5.597-4.306.685-8.439 2.203-12.95-.006v23.125h5.796c0-4.15 0-8.104.077-12.98m-116.262 2.513v-12.033h-6.293c0 5.506-.273 10.791.088 16.032.28 4.069 2.815 6.983 7.057 7.002 4.404.02 8.81-.786 13.52-1.26v-21.72h-5.947c0 4.41.49 8.612-.203 12.611-.357 2.06-2.542 4.926-4.389 5.362-3.373.796-3.485-2.56-3.833-5.994m262.334-11.592c-5.319-.171-10.637-.351-15.957-.488-.23-.005-.471.385-.682.57v22.179l5.474-.256c.228-5.19.113-9.87.83-14.42.217-1.372 2.618-2.928 4.27-3.308.739-.17 2.908 2.284 3.026 3.668.393 4.585.149 9.226.149 14.084H515c0-6.025.159-11.825-.117-17.606-.065-1.372-1.587-2.675-3.087-4.423m-291.883 19.783 2.74-5.2-5.701-1.07c-.424.483-.892.795-1.04 1.219-1.112 3.197-4.66 4.003-5.713 2.087-1.635-2.979-1.574-7.059-1.5-10.656.014-.676 3.45-1.303 5.326-1.888.207-.064.713.24.802.476 1.746 4.683 4.544 1.815 7.18 1.384-1.57-4.636-4.046-6.796-8.1-7.327-4.916-.645-9.968 1.865-11.744 5.833-2.051 4.586-.824 12.418 2.427 15.483 3.545 3.342 9.203 3.4 15.323-.34m167.913-25.978c-1.433 2.273-3.077 4.45-4.186 6.872-.384.838.483 2.312.914 3.444.52 1.368 1.563 2.642 1.705 4.026.287 2.798.03 5.646.157 8.466.228 5.066 3.672 7.449 8.41 5.74.86-.309 1.997-1.487 1.966-2.22-.04-.958-1.098-1.886-1.754-2.8-.81-1.128-2.231-2.16-2.373-3.354-.348-2.933-.114-5.934-.114-7.643 1.943-2.094 4.026-3.36 4.009-4.595-.018-1.246-2.12-2.463-3.907-4.311l-.449-6.169c-1.543.891-2.637 1.523-4.378 2.544m-98.83 13.343c.615-.958 1.316-1.872 1.82-2.885.63-1.267 1.099-2.615 1.637-3.928-5.283-.995-2.526-5.82-4.7-10.234-3.144 4.131-5.813 7.449-8.193 10.962-.375.553.488 2.017.896 3.013.604 1.475 1.713 2.86 1.892 4.368.35 2.952.02 5.98.31 8.944.422 4.281 4.157 6.532 8.211 4.986.845-.322 1.81-1.465 1.899-2.315.086-.829-.839-1.793-1.395-2.65-.749-1.153-2.007-2.171-2.26-3.409-.39-1.914-.113-3.963-.116-6.852m263.103.063 6.77-4.206.61-4.006-13.92.633v22.684l5.528-.261c.317-4.983.6-9.448 1.012-14.844m-326.04-4.161v19.004h6.071c.198-4.333.026-8.522.739-12.553.323-1.825 2.228-3.53 3.741-4.938 1.433-1.332 3.293-2.206 4.965-3.281l-.799-1.783c-4.616 0-9.234-.052-13.844.114-.32.011-.583 1.641-.874 3.437m-51.138-3.443h-13.516v22.419h6.12c0-4.313-.308-8.482.147-12.566.191-1.72 2.123-4.716 3.04-4.634 3.893.35 4.45-1.76 4.209-5.219m-28.366 1.826c-1.076-.886-2.167-2.538-3.225-2.517-3.677.073-7.342.727-11.163 1.178v21.92h6.198c0-4.035-.218-7.842.067-11.61.236-3.119.506-6.595 5.397-5.846.655.1 1.59-1.628 2.726-3.125m124.1 20.616h4.967v-22.365h-5.54c0 7.473 0 14.557.573 22.365m-.853-28.362c.247 5.473 3.743 1.952 5.9 2.537v-6.96c-2.604 1.628-4.249 2.656-5.9 4.423z"/><path fill="#DB2A22" d="M430.08 312.1c-.544 2.356-1.031 4.29-1.687 6.89-4.801 0-9.749.088-14.687-.082-.886-.031-2.192-.94-2.532-1.763-4.741-11.486-9.325-23.037-14-34.55-1.66-4.092-3.464-8.126-5.661-13.259l-10.535 49.393h-16.805l16.76-78.759c4.595 0 9.376-.197 14.119.137 1.205.085 2.807 1.636 3.351 2.892 4.15 9.583 8.073 19.264 12.084 28.906 2.221 5.34 4.478 10.665 7.728 16.077l10.269-47.669h16.569c-5.011 23.975-9.964 47.67-14.973 71.787z"/><path fill="#DB2B23" d="M338.998 304.572h17.412l-2.832 14.101h-63.28c1.157-5.758 2.244-11.392 3.428-17.006 4.114-19.506 8.224-39.013 12.486-58.486.267-1.216 1.814-3.07 2.78-3.08 19.122-.182 38.246-.136 58.086-.136-1.1 5.198-2.08 9.822-3.14 14.824-12.487 0-24.623.2-36.746-.111-4.152-.107-6.142 1.093-6.674 5.2-.438 3.384-1.286 6.715-2.064 10.636h40.867l-3.645 15.06c-12.035 0-23.856.164-35.666-.097-3.714-.082-5.471 1.072-6.1 4.664-.8 4.57-1.885 9.089-3.017 14.43h28.105z"/><path fill="#DB2A22" d="M143.01 307.883c-1.472-5.03-2.769-9.732-4.302-15.289l17.838-.923c.234 1.282.627 2.514.659 3.756.15 5.84 3.582 8.756 8.884 9.609 6.523 1.05 13.144 1.32 18.24-3.896 2.587-2.647 1.864-7.666-1.496-9.575-6.031-3.427-12.285-6.52-18.643-9.303-13.257-5.8-17.847-15.286-13.125-28.855 2.183-6.274 6.886-10.516 13.278-12.414 12.43-3.69 24.734-4.08 35.596 4.22 5.667 4.328 9.058 10.395 8.638 18.444l-15.932.822c-5.02-10.766-12.362-14.464-21.29-10.322-1.913.888-4.153 3.336-4.282 5.2-.146 2.11 1.343 5.358 3.12 6.394 6.408 3.73 13.083 7.107 19.936 9.943 16.961 7.02 17.573 26.809 4.445 37.646-12.008 9.913-36.887 9.19-48.395-1.203-1.2-1.084-2.006-2.606-3.17-4.254zM121.44 274.243c2.594 14.974 5.09 29.522 7.652 44.446h-17.328c-.527-4.095-1.263-8.306-1.549-12.547-.207-3.08-1.191-4.355-4.515-4.252-7.653.236-15.326-.1-22.975.204-1.715.069-3.892 1.423-4.93 2.855-2.024 2.79-3.456 6.024-5.015 9.133-1.765 3.52-4.017 5.61-8.462 5.025-3.914-.515-7.949-.108-12.85-.108 3.407-6.138 6.435-11.742 9.6-17.266 10.959-19.125 21.985-38.211 32.933-57.342 1.68-2.935 3.517-4.945 7.408-4.524 3.787.41 7.686-.201 11.465.242 1.414.166 3.56 1.877 3.785 3.163 1.777 10.143 3.171 20.354 4.78 30.97m-25.137-3.508L85.977 287.17h21.153l-4.221-27.752c-2.59 4.425-4.419 7.55-6.607 11.316zM240.86 242.79c11.003-4.793 21.801-5.56 32.824-1.402 8.408 3.172 17.019 14.702 15.735 23.707l-16.226 1.825c-1.557-7.36-5.114-12.388-13.218-12.69-9.567-.358-16.358 4.283-20.608 12.274-3.94 7.408-5.336 15.467-4.765 24.094.515 7.783 6.804 13.941 12.538 14.802 6.915 1.039 15.347-3.545 18.577-10.14.934-1.909 1.763-3.87 2.719-5.981l17.308 3.003c-1.858 7.846-6.218 13.782-11.686 18.864-11.881 11.043-33.33 11.703-44.263 4.415-9.387-6.258-12.585-15.58-12.994-26.1-.65-16.738 3.732-31.597 17.467-42.478 1.933-1.532 4.168-2.684 6.592-4.194z"/><path fill="#DB2B23" d="M467.093 292.826c2.653-12.75 5.207-25.084 7.888-38.034H452.03l2.987-14.503h63.03c.168.466.389.772.366 1.06-1.062 13.44-1.065 13.44-14.518 13.44-10.977-.001-10.815.032-13.026 10.82-3.367 16.43-7.053 32.793-10.44 49.218-.653 3.17-1.908 4.484-5.28 4.254-4.433-.303-8.9-.074-13.902-.074 2.01-9.013 3.879-17.39 5.846-26.181z"/><path fill="#DB2B23" d="M552.312 255.331c-6.093 6.8-11.783 13.501-17.932 19.75-1.73 1.756-4.734 2.775-7.283 3.09-4.065.504-8.239.135-13.662.135l27.482-31.093-26.598-30.966c5.47-.243 10.024-.551 14.579-.56.91 0 1.976 1 2.71 1.783 9.202 9.794 18.355 19.633 27.877 29.843a3889.147 3889.147 0 0 0-7.173 8.018z"/><path fill="#DC342D" d="M309.735 374.794c-.008-3.134.312-5.86-.161-8.44-.242-1.32-1.905-2.38-2.925-3.558-1.301 1.158-3.606 2.221-3.725 3.49-.447 4.75-.179 9.568-.179 14.498h-6.28V358.9h18.66l.12 1.523c1.256-.77 2.445-1.69 3.78-2.283 4.978-2.215 10.066.842 10.255 6.293.185 5.308.04 10.627.04 16.273h-6.259c0-4.517.222-9.132-.128-13.703-.112-1.461-1.738-2.807-2.672-4.206-1.37 1.318-3.758 2.522-3.922 3.975-.513 4.565-.189 9.223-.189 14.05h-6.415v-6.028z"/><path fill="#DD3730" d="M480.223 357.128c1.62-2.677 3.11-4.969 4.599-7.26l1.547.75.401 5.543c1.877 1.956 3.998 3.204 3.967 4.396-.032 1.255-2.122 2.457-3.923 4.31v9.103l4.347 5.125c-1.261.788-2.727 2.432-3.743 2.19-2.293-.547-5.602-1.55-6.251-3.232-1.134-2.94-.533-6.534-.74-9.85-.134-2.135.89-5.645-2.497-5.3-2.998.307-7.878-1.09-8.373 4.443-.383 4.285-.587 8.585-.908 13.443l-5.452.281v-22.312c5.666-.417 11.28-.831 17.026-1.63z"/><path fill="#DC332C" d="M416.42 358.115c1.683.294 3.23 1.134 4.197.695 6.36-2.89 12.835.388 13.44 7.43.288 3.34.224 7.21-1.198 10.091-2.642 5.353-6.686 6.014-14.276 3.265l-.5 9.712-5.872.297c0-10.134-.074-19.888.164-29.634.016-.663 2.374-1.269 4.046-1.856m7.934 4.763c-3.637-.624-5.76 1.644-5.73 4.576.029 2.83 1.49 5.783 2.935 8.335.255.45 4.155-.204 5.264-1.387 2.608-2.781 1.491-8.488-2.47-11.524z"/><path fill="#DC352E" d="M177.285 374.554c-1.667-5.504-1.185-10.388 2.755-14.213 3.24-3.145 7.279-3.877 11.525-1.763 4.585 2.282 6.508 6.294 5.956 12.996h-14.373c1.724 5.655 3.56 6.16 7.765 3.402 1.608-1.056 4.016-.89 6.719-1.408-1.82 6.04-5.501 7.918-10.115 7.91-4.595-.01-8.535-1.603-10.232-6.924M189.305 363c-3.195-.603-5.855-.411-5.939 3.866h8.332c-.692-1.495-1.147-2.478-2.393-3.866z"/><path fill="#DD3730" d="M532.947 375.464c2.374-.852 4.493-1.398 7.382-2.142-2.626 7.072-7.449 9.424-13.484 7.718-5.422-1.533-8.666-7.57-7.528-14.01 1.051-5.952 5.975-10 11.556-9.504 6.25.556 9.57 5.06 9.79 14.085H525.725c1.159 4.422 3.06 6.134 7.221 3.853m-1.547-8.254 2.616-1.785c-1.188-.899-2.514-2.665-3.534-2.503-1.756.28-3.32 1.759-4.965 2.735l.674 1.558c1.438 0 2.876 0 5.209-.005z"/><path fill="#DC352E" d="M335.717 361.81c3.667-4.242 7.833-5.45 12.707-3.348 5.505 2.374 6.123 7.22 6.256 13.031H340.2c1.154 5.055 3.646 6.195 6.85 4.166 1.865-1.181 4.25-1.542 7.3-2.577-2.03 6.326-5.51 8.73-10.442 8.461-5.04-.274-9.569-3.344-9.938-7.963-.301-3.757.964-7.64 1.748-11.77m6.289 1.279-2.587 3.863h8.716c.01-4.036-2.35-4.488-6.13-3.863zM54.804 365.295a1051.99 1051.99 0 0 1-2.13-6.615c4.592-1.617 6.976-.523 7.75 4.34.458 2.878 1.99 5.585 3.61 9.883 1.359-3.926 2.483-6.654 3.238-9.482 1.083-4.056 2.922-6.661 8.23-4.876-3.277 9.015-6.258 18.197-10.08 27.015-.919 2.121-4.462 3.562-7.09 4.367-3.033.93-5.277-.335-4.368-4.207 6.681-1.638 7.591-3.45 4.983-9.896-1.364-3.372-2.672-6.767-4.143-10.529z"/><path fill="#DC352D" d="M457.569 362.948c.08 6.054.08 11.694.08 17.764-.105.028-.749.42-1.261.29-3.71-.932-7.208-.55-10.976.323-3.307.766-6.687-.851-7.686-4.737-1.01-3.932.433-6.932 4.398-8.246 2.184-.724 4.565-.855 6.752-1.572.847-.278 1.406-1.435 2.096-2.192-.81-.592-1.57-1.572-2.44-1.682-1.24-.157-2.577.259-3.844.55-1.975.452-3.927 1.006-6.159.886.84-4.254 3.346-6.331 7.05-6.685 4.742-.453 9.446-.396 11.99 5.301m-9.412 13.807 3.708-5.586-1.866-1.682-6.201 4.957c1.185.806 2.37 1.613 4.36 2.31z"/><path fill="#DD3730" d="M108.14 379.891c-1.33-7.086-2.32-14.003-3.4-21.547l7.119-.314c0 4.818-.348 9.296.172 13.672.207 1.74 2.337 3.252 3.592 4.868 1.488-1.501 4.028-2.857 4.261-4.532.607-4.373.204-8.886.204-13.654h6.042c.107 1.086.283 2.06.287 3.036.025 6.297.013 12.594.013 19.654-6.192-.349-12.071-.68-18.29-1.183z"/><path fill="#DC322B" d="M90.639 381.426c-7.844-.584-10.94-2.811-12.579-8.715-1.298-4.676.59-10.112 4.362-12.79 4.393-3.12 8.901-3.283 13.484-.551 4.582 2.731 5.812 7.125 5.16 12.002-.765 5.738-4.287 9.084-10.427 10.054m-.26-5.088c4.135-2.158 5.273-5.31 3.939-9.781-.963-3.226-3.331-4.718-5.933-3.43-1.934.956-3.72 3.648-4.167 5.852-.774 3.82 1.062 6.738 6.16 7.36z"/><path fill="#DC322A" d="M365.687 368.304c-.039 4.414-.039 8.367-.039 12.518h-5.796v-23.125c4.511 2.21 8.644.691 12.95.006 3.492-.555 6.676 1.66 6.92 5.597.355 5.743.09 11.524.09 17.478h-6.13c0-4.211.135-8.18-.052-12.133-.105-2.217 1.17-5.307-2.756-5.836-3.9-.526-4.858 1.898-5.187 5.495z"/><path fill="#DC3129" d="M249.496 370.83c.315 2.958.427 6.315 3.8 5.52 1.847-.437 4.032-3.303 4.39-5.363.692-3.999.202-8.202.202-12.611h5.948v21.72c-4.71.474-9.117 1.28-13.52 1.26-4.243-.019-6.778-2.933-7.058-7.002-.361-5.241-.088-10.526-.088-16.032h6.293c0 4.118 0 8.075.033 12.508z"/><path fill="#DC342D" d="M512.121 358.97c1.176 1.541 2.698 2.844 2.763 4.216.276 5.78.117 11.581.117 17.606h-6.094c0-4.858.244-9.499-.149-14.084-.118-1.384-2.287-3.838-3.026-3.668-1.652.38-4.053 1.936-4.27 3.309-.717 4.549-.602 9.23-.83 14.42-1.753.08-3.452.16-5.474.255v-22.18c.21-.184.451-.574.682-.569 5.32.137 10.638.317 16.281.695z"/><path fill="#DC352E" d="M219.652 378.792c-5.858 3.494-11.516 3.437-15.06.095-3.252-3.065-4.48-10.897-2.428-15.483 1.776-3.968 6.828-6.478 11.745-5.833 4.053.531 6.53 2.691 8.099 7.327-2.636.431-5.434 3.3-7.18-1.384-.089-.237-.595-.54-.802-.476-1.877.585-5.312 1.212-5.326 1.888-.074 3.597-.135 7.677 1.5 10.656 1.053 1.916 4.6 1.11 5.714-2.087.147-.424.615-.736 1.039-1.218l5.702 1.068c-1.032 1.959-1.887 3.58-3.003 5.447z"/><path fill="#DD3831" d="M388.15 352.375c1.418-.827 2.512-1.459 4.055-2.35l.449 6.169c1.787 1.848 3.89 3.065 3.907 4.31.017 1.237-2.066 2.502-4.009 4.596 0 1.709-.234 4.71.114 7.643.142 1.194 1.564 2.226 2.373 3.353.656.915 1.713 1.843 1.754 2.8.031.734-1.107 1.912-1.966 2.222-4.738 1.708-8.182-.675-8.41-5.74-.126-2.821.13-5.67-.157-8.467-.142-1.384-1.185-2.658-1.705-4.026-.43-1.132-1.298-2.606-.914-3.444 1.11-2.422 2.753-4.599 4.51-7.066z"/><path fill="#DC342D" d="M288.996 366.36c.005 2.44-.272 4.49.118 6.404.253 1.238 1.511 2.256 2.26 3.41.556.856 1.48 1.82 1.395 2.649-.089.85-1.054 1.993-1.899 2.315-4.054 1.546-7.79-.705-8.21-4.986-.292-2.964.039-5.992-.311-8.944-.18-1.508-1.288-2.893-1.892-4.368-.408-.996-1.271-2.46-.896-3.013 2.38-3.513 5.049-6.83 8.192-10.962 2.175 4.413-.582 9.239 4.7 10.234-.537 1.313-1.005 2.661-1.636 3.928-.504 1.013-1.205 1.927-1.821 3.333z"/><path fill="#DD3932" d="M552.037 366.44c-.347 4.93-.631 9.396-.948 14.379l-5.528.261v-22.684l13.92-.633-.61 4.006c-2.873 1.784-4.822 2.995-6.834 4.671z"/><path fill="#DC352D" d="M226.061 361.355c.29-1.337.552-2.967.873-2.978 4.61-.166 9.228-.114 13.844-.114l.799 1.783c-1.672 1.075-3.532 1.949-4.965 3.281-1.513 1.408-3.418 3.113-3.741 4.938-.713 4.031-.54 8.22-.739 12.553h-6.072l.001-19.463z"/><path fill="#DD3730" d="M175.124 358.654c.038 3.176-.518 5.285-4.412 4.936-.916-.082-2.848 2.913-3.04 4.634-.454 4.084-.146 8.253-.146 12.566h-6.12V358.37c4.557 0 9.036 0 13.718.283z"/><path fill="#DC322B" d="M146.391 360.505c-.97 1.19-1.906 2.917-2.56 2.817-4.892-.749-5.162 2.727-5.398 5.845-.285 3.77-.067 7.576-.067 11.611h-6.198v-21.92c3.821-.451 7.486-1.105 11.163-1.178 1.058-.021 2.15 1.631 3.06 2.825z"/><path fill="#DD3831" d="M270.37 380.45c-.288-7.445-.288-14.529-.288-22.002h5.541v22.365c-1.79 0-3.378 0-5.254-.363z"/><path fill="#DF443E" d="M269.806 352.082c1.648-1.398 3.293-2.426 5.897-4.054v6.96c-2.157-.585-5.653 2.936-5.897-2.906z"/><path fill="#FEF8F7" d="M96.481 270.415c2.01-3.446 3.839-6.572 6.428-10.997l4.221 27.752H85.977c3.721-5.924 7.023-11.18 10.504-16.755z"/><path fill="#FDF5F4" d="M424.762 362.954c3.553 2.96 4.67 8.667 2.062 11.448-1.109 1.183-5.009 1.838-5.264 1.387-1.444-2.552-2.906-5.504-2.935-8.335-.03-2.932 2.093-5.2 6.137-4.5z"/><path fill="#FCEDEC" d="M189.7 363.202c.85 1.185 1.306 2.168 1.998 3.663h-8.332c.084-4.277 2.744-4.47 6.334-3.663zM530.953 367.212c-1.886.003-3.324.003-4.762.003l-.674-1.558c1.645-.976 3.21-2.456 4.965-2.735 1.02-.162 2.346 1.604 3.534 2.503-.872.595-1.744 1.19-3.063 1.787zM342.414 362.962c3.372-.498 5.73-.046 5.721 3.99h-8.716c1.13-1.687 1.858-2.775 2.995-3.99zM447.755 376.81c-1.587-.753-2.772-1.56-3.957-2.366l6.201-4.957 1.866 1.682c-1.236 1.862-2.472 3.724-4.11 5.64z"/><path fill="#FDF3F2" d="M89.965 376.374c-4.685-.657-6.52-3.576-5.747-7.395.447-2.204 2.233-4.896 4.167-5.853 2.602-1.287 4.97.205 5.933 3.43 1.334 4.472.196 7.624-4.353 9.818z"/></svg>