<?xml version="1.0" encoding="UTF-8" standalone="yes"?>
<svg version="1.2" width="100%" viewBox="0 0 600 600" xml:space="preserve" baseProfile="tiny-ps" xmlns="http://www.w3.org/2000/svg">
  <title>bimi-svg-tiny-12-ps</title>
  <path fill="#FFFEFE" stroke="none" d="&#xA;M344.000000,601.000000 &#xA;&#x9;C229.333328,601.000000 115.166664,601.000000 1.000000,601.000000 &#xA;&#x9;C1.000000,401.000000 1.000000,201.000000 1.000000,1.000000 &#xA;&#x9;C201.000000,1.000000 401.000000,1.000000 601.000000,1.000000 &#xA;&#x9;C601.000000,201.000000 601.000000,401.000000 601.000000,601.000000 &#xA;&#x9;C515.500000,601.000000 430.000000,601.000000 344.000000,601.000000 &#xA;M430.136688,311.678925 &#xA;&#x9;C435.089325,287.983521 440.041992,264.288086 445.053009,240.313385 &#xA;&#x9;C439.116302,240.313385 433.724274,240.313385 428.483704,240.313385 &#xA;&#x9;C425.007477,256.450470 421.611267,272.216064 418.215057,287.981689 &#xA;&#x9;C414.964569,282.570160 412.708405,277.244873 410.487000,271.905151 &#xA;&#x9;C406.475555,262.262634 402.552338,252.582245 398.403412,242.999451 &#xA;&#x9;C397.859375,241.742844 396.257446,240.191788 395.051788,240.106842 &#xA;&#x9;C390.308716,239.772644 385.528198,239.969955 380.933411,239.969955 &#xA;&#x9;C375.271545,266.575928 369.750610,292.519501 364.173035,318.729370 &#xA;&#x9;C369.864502,318.729370 375.284271,318.729370 380.978302,318.729370 &#xA;&#x9;C384.432281,302.534363 387.842743,286.543488 391.512634,269.335999 &#xA;&#x9;C393.710358,274.469482 395.513153,278.503204 397.174286,282.594452 &#xA;&#x9;C401.849121,294.108185 406.432922,305.659119 411.174164,317.145233 &#xA;&#x9;C411.513672,317.967712 412.820038,318.876984 413.705750,318.907501 &#xA;&#x9;C418.644348,319.077637 423.591858,318.989258 428.393433,318.989258 &#xA;&#x9;C429.048737,316.390503 429.536499,314.456177 430.136688,311.678925 &#xA;M338.498291,304.571320 &#xA;&#x9;C329.417908,304.571320 320.337555,304.571320 310.892517,304.571320 &#xA;&#x9;C312.024719,299.229736 313.110596,294.710602 313.910187,290.141357 &#xA;&#x9;C314.538757,286.549103 316.295898,285.394958 320.009552,285.476898 &#xA;&#x9;C331.820343,285.737579 343.640503,285.573425 355.676270,285.573425 &#xA;&#x9;C356.887695,280.567383 358.035736,275.823395 359.320618,270.513855 &#xA;&#x9;C345.479553,270.513855 332.390778,270.513855 318.453522,270.513855 &#xA;&#x9;C319.232178,266.593201 320.079956,263.262329 320.518005,259.878448 &#xA;&#x9;C321.049713,255.770737 323.039825,254.570724 327.192139,254.677628 &#xA;&#x9;C339.314789,254.989731 351.450684,254.788528 363.938232,254.788528 &#xA;&#x9;C364.997742,249.786591 365.977051,245.163208 367.078094,239.965149 &#xA;&#x9;C347.237549,239.965149 328.113617,239.918625 308.991852,240.101059 &#xA;&#x9;C308.025787,240.110275 306.478516,241.964523 306.212311,243.180847 &#xA;&#x9;C301.950073,262.654327 297.839600,282.161163 293.725555,301.666931 &#xA;&#x9;C292.541534,307.280792 291.455170,312.915253 290.297272,318.673309 &#xA;&#x9;C311.558777,318.673309 332.462738,318.673309 353.578156,318.673309 &#xA;&#x9;C354.526733,313.949615 355.417480,309.513916 356.409821,304.572357 &#xA;&#x9;C350.129517,304.572357 344.813385,304.572357 338.498291,304.571320 &#xA;M143.183960,308.211639 &#xA;&#x9;C144.172836,309.530579 144.978302,311.052643 146.179031,312.136993 &#xA;&#x9;C157.686584,322.529205 182.566116,323.253265 194.574203,313.340149 &#xA;&#x9;C207.701767,302.502808 207.090210,282.714172 190.129074,275.694092 &#xA;&#x9;C183.276199,272.857758 176.601151,269.480682 170.193939,265.750610 &#xA;&#x9;C168.415802,264.715424 166.927017,261.467621 167.072968,259.357178 &#xA;&#x9;C167.201920,257.492554 169.442337,255.044556 171.355026,254.157211 &#xA;&#x9;C180.283447,250.015045 187.625656,253.712753 192.644882,264.479034 &#xA;&#x9;C197.882431,264.208679 203.148361,263.936859 208.577118,263.656616 &#xA;&#x9;C208.996613,255.607925 205.605698,249.541489 199.938904,245.212051 &#xA;&#x9;C189.076721,236.913422 176.772842,237.302719 164.343063,240.992966 &#xA;&#x9;C157.950562,242.890823 153.248093,247.132889 151.064941,253.406845 &#xA;&#x9;C146.343399,266.975647 150.932770,276.461548 164.189972,282.262451 &#xA;&#x9;C170.548111,285.044495 176.801971,288.137848 182.833359,291.564911 &#xA;&#x9;C186.192657,293.473663 186.915970,298.493439 184.329819,301.139984 &#xA;&#x9;C179.233231,306.355621 172.612000,306.085724 166.088882,305.036011 &#xA;&#x9;C160.786530,304.182770 157.355606,301.267120 157.204636,295.427490 &#xA;&#x9;C157.172516,294.185364 156.780197,292.952606 156.545700,291.671143 &#xA;&#x9;C150.778885,291.969513 145.379288,292.248901 138.707825,292.594086 &#xA;&#x9;C140.241196,298.151459 141.538300,302.852478 143.183960,308.211639 &#xA;M121.342117,273.816132 &#xA;&#x9;C119.830215,263.625977 118.436417,253.415115 116.658737,243.271530 &#xA;&#x9;C116.433525,241.986481 114.287743,240.274689 112.873627,240.108826 &#xA;&#x9;C109.095001,239.665634 105.195702,240.276215 101.409378,239.866745 &#xA;&#x9;C97.518196,239.445923 95.680763,241.455902 94.000786,244.391418 &#xA;&#x9;C83.052551,263.521973 72.026665,282.608032 61.068264,301.732788 &#xA;&#x9;C57.902695,307.257416 54.875263,312.861145 51.467690,318.999268 &#xA;&#x9;C56.369240,318.999268 60.404430,318.592285 64.318443,319.106903 &#xA;&#x9;C68.763138,319.691315 71.015305,317.601807 72.780045,314.081665 &#xA;&#x9;C74.338715,310.972626 75.771339,307.739746 77.794464,304.949371 &#xA;&#x9;C78.833290,303.516541 81.009888,302.162567 82.724777,302.094482 &#xA;&#x9;C90.373695,301.790802 98.046524,302.125671 105.700218,301.889618 &#xA;&#x9;C109.023964,301.787140 110.008209,303.061371 110.215454,306.141632 &#xA;&#x9;C110.500824,310.382874 111.237152,314.593811 111.763786,318.689392 &#xA;&#x9;C117.802780,318.689392 123.234497,318.689392 129.092361,318.689392 &#xA;&#x9;C126.530556,303.764679 124.033508,289.217224 121.342117,273.816132 &#xA;M240.531128,242.970383 &#xA;&#x9;C238.435822,244.298660 236.201385,245.451324 234.267517,246.983383 &#xA;&#x9;C220.533188,257.864014 216.151001,272.722534 216.801239,289.460571 &#xA;&#x9;C217.209961,299.981293 220.407547,309.302979 229.795441,315.560944 &#xA;&#x9;C240.728928,322.849182 262.176880,322.188599 274.058105,311.145660 &#xA;&#x9;C279.525543,306.063965 283.885834,300.127563 285.744232,292.282440 &#xA;&#x9;C279.799042,291.250671 274.272949,290.291595 268.436035,289.278595 &#xA;&#x9;C267.479645,291.390594 266.651367,293.351105 265.716858,295.259583 &#xA;&#x9;C262.487396,301.854858 254.054886,306.438690 247.139664,305.400360 &#xA;&#x9;C241.405518,304.539398 235.116974,298.380615 234.602036,290.598419 &#xA;&#x9;C234.031128,281.970673 235.427200,273.912445 239.367477,266.503784 &#xA;&#x9;C243.617325,258.512970 250.407547,253.871536 259.974731,254.229111 &#xA;&#x9;C268.079254,254.532028 271.635712,259.559265 273.192749,266.919983 &#xA;&#x9;C278.772766,266.292480 284.160034,265.686615 289.419006,265.095215 &#xA;&#x9;C290.702820,256.090271 282.092255,244.559738 273.684021,241.388443 &#xA;&#x9;C262.661011,237.230911 251.862686,237.996536 240.531128,242.970383 &#xA;M466.994446,293.239807 &#xA;&#x9;C465.125793,301.617065 463.257141,309.994324 461.246826,319.006683 &#xA;&#x9;C466.248413,319.006683 470.716400,318.778473 475.148193,319.080933 &#xA;&#x9;C478.520996,319.311127 479.775757,317.997528 480.429474,314.826813 &#xA;&#x9;C483.815826,298.401855 487.501678,282.038544 490.869110,265.609833 &#xA;&#x9;C493.080444,254.821274 492.917969,254.787979 503.894958,254.788208 &#xA;&#x9;C517.348206,254.788483 517.350586,254.788651 518.413269,241.348740 &#xA;&#x9;C518.435974,241.061432 518.214661,240.754837 518.046326,240.289047 &#xA;&#x9;C497.066162,240.289047 476.038605,240.289047 455.017334,240.289047 &#xA;&#x9;C454.018158,245.139023 453.086090,249.663254 452.029510,254.791870 &#xA;&#x9;C459.772614,254.791870 467.184448,254.791870 474.981476,254.791870 &#xA;&#x9;C472.299957,267.742401 469.745972,280.076843 466.994446,293.239807 &#xA;M552.541260,255.060272 &#xA;&#x9;C554.822021,252.515579 557.102722,249.970901 559.485168,247.312744 &#xA;&#x9;C549.963074,237.103073 540.809570,227.264130 531.608459,217.470001 &#xA;&#x9;C530.873535,216.687729 529.808044,215.686234 528.897766,215.687805 &#xA;&#x9;C524.342957,215.695602 519.788696,216.004013 514.318970,216.247498 &#xA;&#x9;C523.628845,227.086319 532.306702,237.189316 540.916626,247.213211 &#xA;&#x9;C531.734253,257.602448 522.921448,267.573486 513.435425,278.306335 &#xA;&#x9;C518.858459,278.306335 523.031616,278.675293 527.096741,278.171722 &#xA;&#x9;C529.645508,277.855988 532.650452,276.837494 534.379700,275.080353 &#xA;&#x9;C540.528809,268.832123 546.218567,262.131805 552.541260,255.060272 &#xA;M309.735138,375.263855 &#xA;&#x9;C309.735138,377.059662 309.735138,378.855469 309.735138,380.821106 &#xA;&#x9;C311.980743,380.821106 313.745758,380.821106 316.150391,380.821106 &#xA;&#x9;C316.150391,375.995117 315.826172,371.336761 316.339203,366.772491 &#xA;&#x9;C316.502563,365.318878 318.890961,364.115356 320.261230,362.797394 &#xA;&#x9;C321.194611,364.196075 322.820831,365.541718 322.932800,367.003326 &#xA;&#x9;C323.282898,371.574158 323.061340,376.188751 323.061340,380.706055 &#xA;&#x9;C325.557281,380.706055 327.297638,380.706055 329.320465,380.706055 &#xA;&#x9;C329.320465,375.060242 329.464752,369.740997 329.280457,364.433167 &#xA;&#x9;C329.091187,358.982117 324.003174,355.925354 319.024139,358.140228 &#xA;&#x9;C317.690186,358.733673 316.501221,359.652985 315.245667,360.422668 &#xA;&#x9;C315.205505,359.915039 315.165344,359.407440 315.125183,358.899811 &#xA;&#x9;C308.970001,358.899811 302.814789,358.899811 296.464111,358.899811 &#xA;&#x9;C296.464111,366.017151 296.464111,373.276550 296.464111,380.783600 &#xA;&#x9;C298.496307,380.783600 300.261536,380.783600 302.745117,380.783600 &#xA;&#x9;C302.745117,375.853760 302.477234,371.036224 302.923889,366.285828 &#xA;&#x9;C303.043182,365.017151 305.347534,363.953949 306.648743,362.796417 &#xA;&#x9;C307.669220,363.973846 309.331635,365.033569 309.573792,366.353760 &#xA;&#x9;C310.046936,368.933868 309.726746,371.659515 309.735138,375.263855 &#xA;M480.091156,357.512817 &#xA;&#x9;C474.476990,357.926727 468.862793,358.340637 463.197083,358.758331 &#xA;&#x9;C463.197083,365.999268 463.197083,373.368652 463.197083,381.070374 &#xA;&#x9;C465.300934,380.961792 467.012329,380.873444 468.649017,380.788971 &#xA;&#x9;C468.969910,375.931274 469.173889,371.630707 469.557037,367.346100 &#xA;&#x9;C470.051849,361.812622 474.931946,363.209900 477.929779,362.903656 &#xA;&#x9;C481.317505,362.557556 480.293304,366.067780 480.426880,368.203888 &#xA;&#x9;C480.634125,371.518738 480.033356,375.113281 481.166748,378.052643 &#xA;&#x9;C481.815796,379.735931 485.125092,380.737793 487.418365,381.284943 &#xA;&#x9;C488.433960,381.527222 489.899658,379.882904 491.161041,379.095001 &#xA;&#x9;C489.936890,377.651611 488.712738,376.208191 486.814270,373.969696 &#xA;&#x9;C486.814270,371.406921 486.814270,367.613129 486.814270,364.866608 &#xA;&#x9;C488.615021,363.014130 490.704712,361.812408 490.737427,360.557129 &#xA;&#x9;C490.768463,359.364899 488.647400,358.116608 486.770386,356.161469 &#xA;&#x9;C486.694550,355.113770 486.531799,352.865601 486.369049,350.617401 &#xA;&#x9;C485.853333,350.367371 485.337585,350.117340 484.821869,349.867310 &#xA;&#x9;C483.332794,352.159393 481.843689,354.451477 480.091156,357.512817 &#xA;M416.017853,358.070007 &#xA;&#x9;C414.748993,358.702423 412.391022,359.308289 412.374847,359.971252 &#xA;&#x9;C412.137177,369.717133 412.211304,379.470642 412.211304,389.604614 &#xA;&#x9;C414.603699,389.483856 416.323853,389.397034 418.083008,389.308228 &#xA;&#x9;C418.264313,385.789856 418.419189,382.783905 418.583466,379.595825 &#xA;&#x9;C426.172638,382.344757 430.217163,381.683655 432.858917,376.331024 &#xA;&#x9;C434.280975,373.449677 434.345337,369.579834 434.057739,366.239075 &#xA;&#x9;C433.451508,359.198059 426.976868,355.919922 420.617157,358.809753 &#xA;&#x9;C419.650543,359.248993 418.102631,358.409058 416.017853,358.070007 &#xA;M177.419815,374.918457 &#xA;&#x9;C178.981979,379.875031 182.922241,381.468262 187.517059,381.477325 &#xA;&#x9;C192.130783,381.486450 195.811691,379.607178 197.631973,373.568024 &#xA;&#x9;C194.929474,374.085175 192.520813,373.920380 190.912567,374.975525 &#xA;&#x9;C186.707092,377.734619 184.871674,377.228760 183.147797,371.574219 &#xA;&#x9;C188.063354,371.574219 192.820602,371.574219 197.521179,371.574219 &#xA;&#x9;C198.072632,364.872162 196.149567,360.860199 191.565491,358.578278 &#xA;&#x9;C187.318619,356.464203 183.280060,357.195648 180.039581,360.341370 &#xA;&#x9;C176.100281,364.165558 175.618134,369.050110 177.419815,374.918457 &#xA;M532.691650,375.770538 &#xA;&#x9;C528.786926,377.744965 526.884644,376.032501 525.725647,371.611298 &#xA;&#x9;C528.566711,371.611298 531.011169,371.611298 533.455688,371.611298 &#xA;&#x9;C535.863525,371.611298 538.271362,371.611298 540.662476,371.611298 &#xA;&#x9;C540.443726,362.586334 537.122559,358.081726 530.873352,357.525909 &#xA;&#x9;C525.291870,357.029480 520.368408,361.078217 519.316772,367.029388 &#xA;&#x9;C518.178772,373.469177 521.422974,379.506592 526.845337,381.039856 &#xA;&#x9;C532.880127,382.746338 537.703247,380.394104 540.328674,373.322296 &#xA;&#x9;C537.439880,374.066345 535.321411,374.612000 532.691650,375.770538 &#xA;M335.503387,362.112823 &#xA;&#x9;C334.932770,365.940063 333.667725,369.822937 333.968628,373.580383 &#xA;&#x9;C334.338470,378.199219 338.867310,381.268829 343.906738,381.543091 &#xA;&#x9;C348.838135,381.811523 352.319122,379.407806 354.348541,373.082123 &#xA;&#x9;C351.299652,374.116760 348.914429,374.477631 347.048859,375.659058 &#xA;&#x9;C343.844940,377.688019 341.353210,376.547791 340.198578,371.492981 &#xA;&#x9;C345.041748,371.492981 349.747589,371.492981 354.680359,371.492981 &#xA;&#x9;C354.547058,365.682739 353.928711,360.836121 348.424316,358.462036 &#xA;&#x9;C343.549561,356.359528 339.383881,357.567657 335.503387,362.112823 &#xA;M54.940964,365.672028 &#xA;&#x9;C56.274632,369.056732 57.583252,372.451538 58.947338,375.823944 &#xA;&#x9;C61.555050,382.270874 60.645477,384.082275 53.964413,385.719971 &#xA;&#x9;C53.055294,389.591644 55.299339,390.856506 58.331970,389.927155 &#xA;&#x9;C60.959503,389.121948 64.503151,387.681244 65.422569,385.559631 &#xA;&#x9;C69.243942,376.741760 72.225395,367.559875 75.502922,358.544922 &#xA;&#x9;C70.194206,356.759857 68.355377,359.365479 67.272202,363.421326 &#xA;&#x9;C66.517159,366.248505 65.392632,368.977020 64.033867,372.903412 &#xA;&#x9;C62.414043,368.605164 60.882236,365.898499 60.424149,363.020905 &#xA;&#x9;C59.649860,358.157043 57.266144,357.063080 52.674114,358.679779 &#xA;&#x9;C53.365612,360.844635 54.016163,362.881287 54.940964,365.672028 &#xA;M457.488556,362.535400 &#xA;&#x9;C455.024902,357.251007 450.321259,357.193573 445.579254,357.646912 &#xA;&#x9;C441.875488,358.000977 439.369141,360.077667 438.529022,364.331604 &#xA;&#x9;C440.761322,364.452393 442.712982,363.898499 444.687775,363.445343 &#xA;&#x9;C445.955200,363.154541 447.291107,362.739258 448.531067,362.896088 &#xA;&#x9;C449.401794,363.006165 450.162506,363.986206 450.972351,364.577728 &#xA;&#x9;C450.282135,365.334534 449.723297,366.492218 448.876038,366.769928 &#xA;&#x9;C446.688599,367.487000 444.308319,367.618011 442.123993,368.341919 &#xA;&#x9;C438.159088,369.655945 436.716614,372.655945 437.726379,376.587616 &#xA;&#x9;C438.724518,380.473969 442.105072,382.091339 445.412231,381.324799 &#xA;&#x9;C449.179718,380.451538 452.678253,380.069519 456.387512,381.002655 &#xA;&#x9;C456.900055,381.131622 457.543701,380.739655 457.648895,380.712433 &#xA;&#x9;C457.648895,374.641998 457.648895,369.001617 457.488556,362.535400 &#xA;M108.479622,380.061249 &#xA;&#x9;C114.358864,380.393097 120.238106,380.724976 126.429810,381.074463 &#xA;&#x9;C126.429810,374.014008 126.442131,367.716827 126.416908,361.419830 &#xA;&#x9;C126.413002,360.444427 126.237190,359.469727 126.129913,358.383728 &#xA;&#x9;C124.247055,358.383728 122.528725,358.383728 120.088455,358.383728 &#xA;&#x9;C120.088455,363.151642 120.491310,367.664856 119.883965,372.037750 &#xA;&#x9;C119.651237,373.713379 117.111359,375.068573 115.622803,376.569763 &#xA;&#x9;C114.368172,374.953888 112.238029,373.442139 112.031029,371.701630 &#xA;&#x9;C111.510651,367.326263 111.858925,362.847595 111.858925,358.030090 &#xA;&#x9;C109.387543,358.139099 107.681633,358.214355 104.739540,358.344147 &#xA;&#x9;C105.819687,365.887787 106.810074,372.804565 108.479622,380.061249 &#xA;M91.018547,381.361816 &#xA;&#x9;C96.778656,380.455658 100.301254,377.109589 101.066856,371.372253 &#xA;&#x9;C101.717728,366.494751 100.487656,362.101471 95.905663,359.369934 &#xA;&#x9;C91.323402,356.638184 86.814796,356.801819 82.421715,359.920685 &#xA;&#x9;C78.649475,362.598816 76.761894,368.034912 78.060226,372.711395 &#xA;&#x9;C79.699249,378.615021 82.794586,380.842407 91.018547,381.361816 &#xA;M365.725159,367.841736 &#xA;&#x9;C366.016205,364.706970 366.974823,362.283081 370.873840,362.808777 &#xA;&#x9;C374.799530,363.338043 373.525024,366.428345 373.629730,368.644501 &#xA;&#x9;C373.816589,372.598145 373.682281,376.566956 373.682281,380.777649 &#xA;&#x9;C375.850403,380.777649 377.599091,380.777649 379.812897,380.777649 &#xA;&#x9;C379.812897,374.824280 380.076752,369.042999 379.721680,363.300049 &#xA;&#x9;C379.478241,359.362274 376.293610,357.148407 372.802673,357.703461 &#xA;&#x9;C368.496338,358.388184 364.363220,359.906067 359.852051,357.697235 &#xA;&#x9;C359.852051,365.943237 359.852051,373.318054 359.852051,380.821838 &#xA;&#x9;C361.810486,380.821838 363.422302,380.821838 365.648071,380.821838 &#xA;&#x9;C365.648071,376.671173 365.648071,372.718353 365.725159,367.841736 &#xA;M249.463394,370.354645 &#xA;&#x9;C249.463394,366.397339 249.463394,362.440002 249.463394,358.321838 &#xA;&#x9;C247.150620,358.321838 245.399017,358.321838 243.169876,358.321838 &#xA;&#x9;C243.169876,363.828064 242.896683,369.112976 243.257782,374.354187 &#xA;&#x9;C243.538116,378.422943 246.073410,381.337311 250.315079,381.356110 &#xA;&#x9;C254.718597,381.375610 259.125793,380.570496 263.835785,380.095337 &#xA;&#x9;C263.835785,373.219849 263.835785,365.851654 263.835785,358.375641 &#xA;&#x9;C261.812286,358.375641 260.093292,358.375641 257.888092,358.375641 &#xA;&#x9;C257.888092,362.785065 258.378143,366.988495 257.685425,370.987000 &#xA;&#x9;C257.328461,373.047455 255.142975,375.913208 253.296005,376.349213 &#xA;&#x9;C249.923340,377.145447 249.811142,373.788361 249.463394,370.354645 &#xA;M511.797241,358.763275 &#xA;&#x9;C506.478363,358.591614 501.159668,358.411926 495.839874,358.275391 &#xA;&#x9;C495.609375,358.269501 495.368744,358.660370 495.157593,358.844757 &#xA;&#x9;C495.157593,366.131470 495.157593,373.382294 495.157593,381.023651 &#xA;&#x9;C497.180481,380.929199 498.878723,380.849915 500.631653,380.768097 &#xA;&#x9;C500.860260,375.578644 500.744812,370.898041 501.462036,366.348663 &#xA;&#x9;C501.678528,364.975677 504.080078,363.420105 505.731903,363.040283 &#xA;&#x9;C506.470947,362.870300 508.639832,365.324463 508.758362,366.707825 &#xA;&#x9;C509.151215,371.293488 508.906708,375.933685 508.906708,380.792236 &#xA;&#x9;C511.226349,380.792236 512.976196,380.792236 515.000610,380.792236 &#xA;&#x9;C515.000610,374.767365 515.159607,368.966583 514.884033,363.186493 &#xA;&#x9;C514.818604,361.814270 513.297241,360.511444 511.797241,358.763275 &#xA;M219.914276,378.546143 &#xA;&#x9;C220.768402,376.925110 221.622513,375.304047 222.654678,373.345123 &#xA;&#x9;C220.160904,372.877808 218.550568,372.576019 216.952591,372.276550 &#xA;&#x9;C216.528656,372.759308 216.061096,373.071228 215.913757,373.494568 &#xA;&#x9;C214.800766,376.692444 211.252808,377.497620 210.200439,375.581665 &#xA;&#x9;C208.564529,372.603333 208.625916,368.523407 208.700363,364.925568 &#xA;&#x9;C208.714340,364.249725 212.149124,363.622833 214.025574,363.038330 &#xA;&#x9;C214.232620,362.973846 214.739471,363.277252 214.827866,363.514252 &#xA;&#x9;C216.574326,368.197144 219.371628,365.329407 222.008026,364.898285 &#xA;&#x9;C220.438950,360.262024 217.961578,358.102478 213.908783,357.571106 &#xA;&#x9;C208.991989,356.926392 203.939896,359.435638 202.164352,363.404236 &#xA;&#x9;C200.112701,367.989990 201.340424,375.821930 204.591431,378.887024 &#xA;&#x9;C208.135910,382.228821 213.794327,382.286499 219.914276,378.546143 &#xA;M387.827423,352.569397 &#xA;&#x9;C386.393707,354.842346 384.750397,357.019257 383.640900,359.440765 &#xA;&#x9;C383.256989,360.278687 384.124298,361.752716 384.554840,362.884918 &#xA;&#x9;C385.074982,364.252808 386.117828,365.527313 386.259857,366.911438 &#xA;&#x9;C386.546936,369.708893 386.290863,372.556976 386.417389,375.377075 &#xA;&#x9;C386.644653,380.443054 390.088928,382.825867 394.826935,381.117950 &#xA;&#x9;C395.686462,380.808044 396.824493,379.629700 396.793182,378.896729 &#xA;&#x9;C396.752319,377.938812 395.695404,377.010712 395.038940,376.096130 &#xA;&#x9;C394.229797,374.968811 392.807678,373.936890 392.666077,372.743286 &#xA;&#x9;C392.318176,369.810455 392.552277,366.808563 392.552277,365.099976 &#xA;&#x9;C394.495178,363.005615 396.577850,361.740540 396.560638,360.504761 &#xA;&#x9;C396.543243,359.258911 394.440857,358.042084 392.653687,356.193787 &#xA;&#x9;C392.565979,354.987701 392.401825,352.730865 392.204987,350.024994 &#xA;&#x9;C390.661530,350.916351 389.567627,351.548065 387.827423,352.569397 &#xA;M288.997620,365.912140 &#xA;&#x9;C289.611542,364.954163 290.313232,364.039886 290.817139,363.027191 &#xA;&#x9;C291.447662,361.760132 291.915619,360.412170 292.453735,359.099152 &#xA;&#x9;C287.170959,358.103668 289.927765,353.278351 287.753265,348.865234 &#xA;&#x9;C284.609772,352.996124 281.941193,356.313751 279.560730,359.826660 &#xA;&#x9;C279.185730,360.380066 280.049194,361.844269 280.456787,362.839508 &#xA;&#x9;C281.061005,364.314880 282.169830,365.699982 282.348755,367.208374 &#xA;&#x9;C282.698883,370.159912 282.368500,373.188416 282.659821,376.151611 &#xA;&#x9;C283.080719,380.433136 286.815613,382.683533 290.870148,381.138092 &#xA;&#x9;C291.715454,380.815887 292.679993,379.672821 292.768646,378.822510 &#xA;&#x9;C292.854950,377.994446 291.930389,377.029572 291.374481,376.173615 &#xA;&#x9;C290.625031,375.019653 289.366516,374.001526 289.114380,372.764496 &#xA;&#x9;C288.724304,370.850494 289.000519,368.800720 288.997620,365.912140 &#xA;M552.100708,365.974548 &#xA;&#x9;C554.049194,364.763916 555.997681,363.553284 558.870056,361.768646 &#xA;&#x9;C558.908936,361.513702 559.146729,359.955078 559.481018,357.763458 &#xA;&#x9;C554.522827,357.988831 550.145447,358.187775 545.561401,358.396118 &#xA;&#x9;C545.561401,365.983795 545.561401,373.357483 545.561401,381.080048 &#xA;&#x9;C547.647705,380.981476 549.370117,380.900085 551.088562,380.818878 &#xA;&#x9;C551.405762,375.835663 551.689941,371.370667 552.100708,365.974548 &#xA;M226.060242,361.813843 &#xA;&#x9;C226.060242,368.088745 226.060242,374.363647 226.060242,380.817932 &#xA;&#x9;C228.355469,380.817932 230.118149,380.817932 232.131958,380.817932 &#xA;&#x9;C232.330322,376.485016 232.157791,372.296478 232.871048,368.264648 &#xA;&#x9;C233.193848,366.439941 235.098679,364.735352 236.612274,363.327240 &#xA;&#x9;C238.044815,361.994537 239.904663,361.121155 241.576584,360.045746 &#xA;&#x9;C241.310516,359.451660 241.044464,358.857574 240.778397,358.263489 &#xA;&#x9;C236.162094,358.263489 231.543915,358.211182 226.933548,358.376678 &#xA;&#x9;C226.613388,358.388184 226.351334,360.018280 226.060242,361.813843 &#xA;M174.921936,358.371429 &#xA;&#x9;C170.442261,358.371429 165.962570,358.371429 161.405640,358.371429 &#xA;&#x9;C161.405640,366.027954 161.405640,373.281677 161.405640,380.789764 &#xA;&#x9;C163.431580,380.789764 165.186813,380.789764 167.526398,380.789764 &#xA;&#x9;C167.526398,376.476868 167.218033,372.308136 167.672668,368.224335 &#xA;&#x9;C167.864273,366.503113 169.795776,363.507751 170.712250,363.589966 &#xA;&#x9;C174.606339,363.939301 175.162247,361.829590 174.921936,358.371429 &#xA;M146.556274,360.196777 &#xA;&#x9;C145.480255,359.311432 144.388931,357.658691 143.330948,357.679779 &#xA;&#x9;C139.654251,357.753021 135.989105,358.406891 132.168152,358.857788 &#xA;&#x9;C132.168152,365.979340 132.168152,373.348328 132.168152,380.778259 &#xA;&#x9;C134.268051,380.778259 136.035461,380.778259 138.365799,380.778259 &#xA;&#x9;C138.365799,376.743042 138.148407,372.936127 138.433334,369.167175 &#xA;&#x9;C138.669037,366.049255 138.939377,362.573242 143.830093,363.322113 &#xA;&#x9;C144.485291,363.422424 145.420441,361.694458 146.556274,360.196777 &#xA;M270.655762,380.812683 &#xA;&#x9;C272.244690,380.812683 273.833618,380.812683 275.623169,380.812683 &#xA;&#x9;C275.623169,373.133911 275.623169,365.802856 275.623169,358.447693 &#xA;&#x9;C273.595123,358.447693 271.901978,358.447693 270.082397,358.447693 &#xA;&#x9;C270.082397,365.921448 270.082397,373.004578 270.655762,380.812683 &#xA;M269.803192,352.451050 &#xA;&#x9;C270.049500,357.923859 273.545776,354.403290 275.702576,354.987976 &#xA;&#x9;C275.702576,353.014008 275.702576,351.447296 275.702576,348.028290 &#xA;&#x9;C273.098785,349.656189 271.454285,350.684326 269.803192,352.451050 &#xA;z"/>
  <path fill="#DB2A22" stroke="none" d="&#xA;M430.080475,312.100403 &#xA;&#x9;C429.536499,314.456177 429.048737,316.390503 428.393433,318.989258 &#xA;&#x9;C423.591858,318.989258 418.644348,319.077637 413.705750,318.907501 &#xA;&#x9;C412.820038,318.876984 411.513672,317.967712 411.174164,317.145233 &#xA;&#x9;C406.432922,305.659119 401.849121,294.108185 397.174286,282.594452 &#xA;&#x9;C395.513153,278.503204 393.710358,274.469482 391.512634,269.335999 &#xA;&#x9;C387.842743,286.543488 384.432281,302.534363 380.978302,318.729370 &#xA;&#x9;C375.284271,318.729370 369.864502,318.729370 364.173035,318.729370 &#xA;&#x9;C369.750610,292.519501 375.271545,266.575928 380.933411,239.969955 &#xA;&#x9;C385.528198,239.969955 390.308716,239.772644 395.051788,240.106842 &#xA;&#x9;C396.257446,240.191788 397.859375,241.742844 398.403412,242.999451 &#xA;&#x9;C402.552338,252.582245 406.475555,262.262634 410.487000,271.905151 &#xA;&#x9;C412.708405,277.244873 414.964569,282.570160 418.215057,287.981689 &#xA;&#x9;C421.611267,272.216064 425.007477,256.450470 428.483704,240.313385 &#xA;&#x9;C433.724274,240.313385 439.116302,240.313385 445.053009,240.313385 &#xA;&#x9;C440.041992,264.288086 435.089325,287.983521 430.080475,312.100403 &#xA;z"/>
  <path fill="#DB2B23" stroke="none" d="&#xA;M338.997742,304.571838 &#xA;&#x9;C344.813385,304.572357 350.129517,304.572357 356.409821,304.572357 &#xA;&#x9;C355.417480,309.513916 354.526733,313.949615 353.578156,318.673309 &#xA;&#x9;C332.462738,318.673309 311.558777,318.673309 290.297272,318.673309 &#xA;&#x9;C291.455170,312.915253 292.541534,307.280792 293.725555,301.666931 &#xA;&#x9;C297.839600,282.161163 301.950073,262.654327 306.212311,243.180847 &#xA;&#x9;C306.478516,241.964523 308.025787,240.110275 308.991852,240.101059 &#xA;&#x9;C328.113617,239.918625 347.237549,239.965149 367.078094,239.965149 &#xA;&#x9;C365.977051,245.163208 364.997742,249.786591 363.938232,254.788528 &#xA;&#x9;C351.450684,254.788528 339.314789,254.989731 327.192139,254.677628 &#xA;&#x9;C323.039825,254.570724 321.049713,255.770737 320.518005,259.878448 &#xA;&#x9;C320.079956,263.262329 319.232178,266.593201 318.453522,270.513855 &#xA;&#x9;C332.390778,270.513855 345.479553,270.513855 359.320618,270.513855 &#xA;&#x9;C358.035736,275.823395 356.887695,280.567383 355.676270,285.573425 &#xA;&#x9;C343.640503,285.573425 331.820343,285.737579 320.009552,285.476898 &#xA;&#x9;C316.295898,285.394958 314.538757,286.549103 313.910187,290.141357 &#xA;&#x9;C313.110596,294.710602 312.024719,299.229736 310.892517,304.571320 &#xA;&#x9;C320.337555,304.571320 329.417908,304.571320 338.997742,304.571838 &#xA;z"/>
  <path fill="#DB2A22" stroke="none" d="&#xA;M143.009674,307.882568 &#xA;&#x9;C141.538300,302.852478 140.241196,298.151459 138.707825,292.594086 &#xA;&#x9;C145.379288,292.248901 150.778885,291.969513 156.545700,291.671143 &#xA;&#x9;C156.780197,292.952606 157.172516,294.185364 157.204636,295.427490 &#xA;&#x9;C157.355606,301.267120 160.786530,304.182770 166.088882,305.036011 &#xA;&#x9;C172.612000,306.085724 179.233231,306.355621 184.329819,301.139984 &#xA;&#x9;C186.915970,298.493439 186.192657,293.473663 182.833359,291.564911 &#xA;&#x9;C176.801971,288.137848 170.548111,285.044495 164.189972,282.262451 &#xA;&#x9;C150.932770,276.461548 146.343399,266.975647 151.064941,253.406845 &#xA;&#x9;C153.248093,247.132889 157.950562,242.890823 164.343063,240.992966 &#xA;&#x9;C176.772842,237.302719 189.076721,236.913422 199.938904,245.212051 &#xA;&#x9;C205.605698,249.541489 208.996613,255.607925 208.577118,263.656616 &#xA;&#x9;C203.148361,263.936859 197.882431,264.208679 192.644882,264.479034 &#xA;&#x9;C187.625656,253.712753 180.283447,250.015045 171.355026,254.157211 &#xA;&#x9;C169.442337,255.044556 167.201920,257.492554 167.072968,259.357178 &#xA;&#x9;C166.927017,261.467621 168.415802,264.715424 170.193939,265.750610 &#xA;&#x9;C176.601151,269.480682 183.276199,272.857758 190.129074,275.694092 &#xA;&#x9;C207.090210,282.714172 207.701767,302.502808 194.574203,313.340149 &#xA;&#x9;C182.566116,323.253265 157.686584,322.529205 146.179031,312.136993 &#xA;&#x9;C144.978302,311.052643 144.172836,309.530579 143.009674,307.882568 &#xA;z"/>
  <path fill="#DB2A22" stroke="none" d="&#xA;M121.439285,274.242920 &#xA;&#x9;C124.033508,289.217224 126.530556,303.764679 129.092361,318.689392 &#xA;&#x9;C123.234497,318.689392 117.802780,318.689392 111.763786,318.689392 &#xA;&#x9;C111.237152,314.593811 110.500824,310.382874 110.215454,306.141632 &#xA;&#x9;C110.008209,303.061371 109.023964,301.787140 105.700218,301.889618 &#xA;&#x9;C98.046524,302.125671 90.373695,301.790802 82.724777,302.094482 &#xA;&#x9;C81.009888,302.162567 78.833290,303.516541 77.794464,304.949371 &#xA;&#x9;C75.771339,307.739746 74.338715,310.972626 72.780045,314.081665 &#xA;&#x9;C71.015305,317.601807 68.763138,319.691315 64.318443,319.106903 &#xA;&#x9;C60.404430,318.592285 56.369240,318.999268 51.467690,318.999268 &#xA;&#x9;C54.875263,312.861145 57.902695,307.257416 61.068264,301.732788 &#xA;&#x9;C72.026665,282.608032 83.052551,263.521973 94.000786,244.391418 &#xA;&#x9;C95.680763,241.455902 97.518196,239.445923 101.409378,239.866745 &#xA;&#x9;C105.195702,240.276215 109.095001,239.665634 112.873627,240.108826 &#xA;&#x9;C114.287743,240.274689 116.433525,241.986481 116.658737,243.271530 &#xA;&#x9;C118.436417,253.415115 119.830215,263.625977 121.439285,274.242920 &#xA;M96.302116,270.734161 &#xA;&#x9;C93.000237,275.990173 89.698364,281.246185 85.977104,287.169800 &#xA;&#x9;C93.539574,287.169800 100.056755,287.169800 107.130211,287.169800 &#xA;&#x9;C105.749779,278.095276 104.434853,269.451355 102.908607,259.418274 &#xA;&#x9;C100.319572,263.842560 98.490059,266.968933 96.302116,270.734161 &#xA;z"/>
  <path fill="#DB2A22" stroke="none" d="&#xA;M240.860077,242.789307 &#xA;&#x9;C251.862686,237.996536 262.661011,237.230911 273.684021,241.388443 &#xA;&#x9;C282.092255,244.559738 290.702820,256.090271 289.419006,265.095215 &#xA;&#x9;C284.160034,265.686615 278.772766,266.292480 273.192749,266.919983 &#xA;&#x9;C271.635712,259.559265 268.079254,254.532028 259.974731,254.229111 &#xA;&#x9;C250.407547,253.871536 243.617325,258.512970 239.367477,266.503784 &#xA;&#x9;C235.427200,273.912445 234.031128,281.970673 234.602036,290.598419 &#xA;&#x9;C235.116974,298.380615 241.405518,304.539398 247.139664,305.400360 &#xA;&#x9;C254.054886,306.438690 262.487396,301.854858 265.716858,295.259583 &#xA;&#x9;C266.651367,293.351105 267.479645,291.390594 268.436035,289.278595 &#xA;&#x9;C274.272949,290.291595 279.799042,291.250671 285.744232,292.282440 &#xA;&#x9;C283.885834,300.127563 279.525543,306.063965 274.058105,311.145660 &#xA;&#x9;C262.176880,322.188599 240.728928,322.849182 229.795441,315.560944 &#xA;&#x9;C220.407547,309.302979 217.209961,299.981293 216.801239,289.460571 &#xA;&#x9;C216.151001,272.722534 220.533188,257.864014 234.267517,246.983383 &#xA;&#x9;C236.201385,245.451324 238.435822,244.298660 240.860077,242.789307 &#xA;z"/>
  <path fill="#DB2B23" stroke="none" d="&#xA;M467.093231,292.825562 &#xA;&#x9;C469.745972,280.076843 472.299957,267.742401 474.981476,254.791870 &#xA;&#x9;C467.184448,254.791870 459.772614,254.791870 452.029510,254.791870 &#xA;&#x9;C453.086090,249.663254 454.018158,245.139023 455.017334,240.289047 &#xA;&#x9;C476.038605,240.289047 497.066162,240.289047 518.046326,240.289047 &#xA;&#x9;C518.214661,240.754837 518.435974,241.061432 518.413269,241.348740 &#xA;&#x9;C517.350586,254.788651 517.348206,254.788483 503.894958,254.788208 &#xA;&#x9;C492.917969,254.787979 493.080444,254.821274 490.869110,265.609833 &#xA;&#x9;C487.501678,282.038544 483.815826,298.401855 480.429474,314.826813 &#xA;&#x9;C479.775757,317.997528 478.520996,319.311127 475.148193,319.080933 &#xA;&#x9;C470.716400,318.778473 466.248413,319.006683 461.246826,319.006683 &#xA;&#x9;C463.257141,309.994324 465.125793,301.617065 467.093231,292.825562 &#xA;z"/>
  <path fill="#DB2B23" stroke="none" d="&#xA;M552.311768,255.331482 &#xA;&#x9;C546.218567,262.131805 540.528809,268.832123 534.379700,275.080353 &#xA;&#x9;C532.650452,276.837494 529.645508,277.855988 527.096741,278.171722 &#xA;&#x9;C523.031616,278.675293 518.858459,278.306335 513.435425,278.306335 &#xA;&#x9;C522.921448,267.573486 531.734253,257.602448 540.916626,247.213211 &#xA;&#x9;C532.306702,237.189316 523.628845,227.086319 514.318970,216.247498 &#xA;&#x9;C519.788696,216.004013 524.342957,215.695602 528.897766,215.687805 &#xA;&#x9;C529.808044,215.686234 530.873535,216.687729 531.608459,217.470001 &#xA;&#x9;C540.809570,227.264130 549.963074,237.103073 559.485168,247.312744 &#xA;&#x9;C557.102722,249.970901 554.822021,252.515579 552.311768,255.331482 &#xA;z"/>
  <path fill="#DC342D" stroke="none" d="&#xA;M309.735077,374.794373 &#xA;&#x9;C309.726746,371.659515 310.046936,368.933868 309.573792,366.353760 &#xA;&#x9;C309.331635,365.033569 307.669220,363.973846 306.648743,362.796417 &#xA;&#x9;C305.347534,363.953949 303.043182,365.017151 302.923889,366.285828 &#xA;&#x9;C302.477234,371.036224 302.745117,375.853760 302.745117,380.783600 &#xA;&#x9;C300.261536,380.783600 298.496307,380.783600 296.464111,380.783600 &#xA;&#x9;C296.464111,373.276550 296.464111,366.017151 296.464111,358.899811 &#xA;&#x9;C302.814789,358.899811 308.970001,358.899811 315.125183,358.899811 &#xA;&#x9;C315.165344,359.407440 315.205505,359.915039 315.245667,360.422668 &#xA;&#x9;C316.501221,359.652985 317.690186,358.733673 319.024139,358.140228 &#xA;&#x9;C324.003174,355.925354 329.091187,358.982117 329.280457,364.433167 &#xA;&#x9;C329.464752,369.740997 329.320465,375.060242 329.320465,380.706055 &#xA;&#x9;C327.297638,380.706055 325.557281,380.706055 323.061340,380.706055 &#xA;&#x9;C323.061340,376.188751 323.282898,371.574158 322.932800,367.003326 &#xA;&#x9;C322.820831,365.541718 321.194611,364.196075 320.261230,362.797394 &#xA;&#x9;C318.890961,364.115356 316.502563,365.318878 316.339203,366.772491 &#xA;&#x9;C315.826172,371.336761 316.150391,375.995117 316.150391,380.821106 &#xA;&#x9;C313.745758,380.821106 311.980743,380.821106 309.735138,380.821106 &#xA;&#x9;C309.735138,378.855469 309.735138,377.059662 309.735077,374.794373 &#xA;z"/>
  <path fill="#DD3730" stroke="none" d="&#xA;M480.222870,357.128174 &#xA;&#x9;C481.843689,354.451477 483.332794,352.159393 484.821869,349.867310 &#xA;&#x9;C485.337585,350.117340 485.853333,350.367371 486.369049,350.617401 &#xA;&#x9;C486.531799,352.865601 486.694550,355.113770 486.770386,356.161469 &#xA;&#x9;C488.647400,358.116608 490.768463,359.364899 490.737427,360.557129 &#xA;&#x9;C490.704712,361.812408 488.615021,363.014130 486.814270,364.866608 &#xA;&#x9;C486.814270,367.613129 486.814270,371.406921 486.814270,373.969696 &#xA;&#x9;C488.712738,376.208191 489.936890,377.651611 491.161041,379.095001 &#xA;&#x9;C489.899658,379.882904 488.433960,381.527222 487.418365,381.284943 &#xA;&#x9;C485.125092,380.737793 481.815796,379.735931 481.166748,378.052643 &#xA;&#x9;C480.033356,375.113281 480.634125,371.518738 480.426880,368.203888 &#xA;&#x9;C480.293304,366.067780 481.317505,362.557556 477.929779,362.903656 &#xA;&#x9;C474.931946,363.209900 470.051849,361.812622 469.557037,367.346100 &#xA;&#x9;C469.173889,371.630707 468.969910,375.931274 468.649017,380.788971 &#xA;&#x9;C467.012329,380.873444 465.300934,380.961792 463.197083,381.070374 &#xA;&#x9;C463.197083,373.368652 463.197083,365.999268 463.197083,358.758331 &#xA;&#x9;C468.862793,358.340637 474.476990,357.926727 480.222870,357.128174 &#xA;z"/>
  <path fill="#DC332C" stroke="none" d="&#xA;M416.420715,358.115417 &#xA;&#x9;C418.102631,358.409058 419.650543,359.248993 420.617157,358.809753 &#xA;&#x9;C426.976868,355.919922 433.451508,359.198059 434.057739,366.239075 &#xA;&#x9;C434.345337,369.579834 434.280975,373.449677 432.858917,376.331024 &#xA;&#x9;C430.217163,381.683655 426.172638,382.344757 418.583466,379.595825 &#xA;&#x9;C418.419189,382.783905 418.264313,385.789856 418.083008,389.308228 &#xA;&#x9;C416.323853,389.397034 414.603699,389.483856 412.211304,389.604614 &#xA;&#x9;C412.211304,379.470642 412.137177,369.717133 412.374847,359.971252 &#xA;&#x9;C412.391022,359.308289 414.748993,358.702423 416.420715,358.115417 &#xA;M424.354584,362.878143 &#xA;&#x9;C420.717773,362.254089 418.595398,364.522034 418.625183,367.454285 &#xA;&#x9;C418.653992,370.284882 420.115509,373.237183 421.560181,375.789276 &#xA;&#x9;C421.815216,376.239868 425.715393,375.585297 426.824249,374.402435 &#xA;&#x9;C429.431946,371.620697 428.315491,365.914215 424.354584,362.878143 &#xA;z"/>
  <path fill="#DC352E" stroke="none" d="&#xA;M177.285233,374.554413 &#xA;&#x9;C175.618134,369.050110 176.100281,364.165558 180.039581,360.341370 &#xA;&#x9;C183.280060,357.195648 187.318619,356.464203 191.565491,358.578278 &#xA;&#x9;C196.149567,360.860199 198.072632,364.872162 197.521179,371.574219 &#xA;&#x9;C192.820602,371.574219 188.063354,371.574219 183.147797,371.574219 &#xA;&#x9;C184.871674,377.228760 186.707092,377.734619 190.912567,374.975525 &#xA;&#x9;C192.520813,373.920380 194.929474,374.085175 197.631973,373.568024 &#xA;&#x9;C195.811691,379.607178 192.130783,381.486450 187.517059,381.477325 &#xA;&#x9;C182.922241,381.468262 178.981979,379.875031 177.285233,374.554413 &#xA;M189.304901,362.999268 &#xA;&#x9;C186.109680,362.395538 183.450409,362.588013 183.366272,366.865295 &#xA;&#x9;C186.082321,366.865295 188.607742,366.865295 191.698029,366.865295 &#xA;&#x9;C191.005768,365.369507 190.550919,364.386719 189.304901,362.999268 &#xA;z"/>
  <path fill="#DD3730" stroke="none" d="&#xA;M532.947327,375.464081 &#xA;&#x9;C535.321411,374.612000 537.439880,374.066345 540.328674,373.322296 &#xA;&#x9;C537.703247,380.394104 532.880127,382.746338 526.845337,381.039856 &#xA;&#x9;C521.422974,379.506592 518.178772,373.469177 519.316772,367.029388 &#xA;&#x9;C520.368408,361.078217 525.291870,357.029480 530.873352,357.525909 &#xA;&#x9;C537.122559,358.081726 540.443726,362.586334 540.662476,371.611298 &#xA;&#x9;C538.271362,371.611298 535.863525,371.611298 533.455688,371.611298 &#xA;&#x9;C531.011169,371.611298 528.566711,371.611298 525.725647,371.611298 &#xA;&#x9;C526.884644,376.032501 528.786926,377.744965 532.947327,375.464081 &#xA;M531.399841,367.210297 &#xA;&#x9;C532.271973,366.615112 533.144043,366.019897 534.016113,365.424683 &#xA;&#x9;C532.827820,364.526276 531.501648,362.760345 530.481812,362.922333 &#xA;&#x9;C528.726318,363.201172 527.161621,364.680847 525.516846,365.656525 &#xA;&#x9;C525.741699,366.175903 525.966492,366.695251 526.191345,367.214600 &#xA;&#x9;C527.629333,367.214600 529.067383,367.214600 531.399841,367.210297 &#xA;z"/>
  <path fill="#DC352E" stroke="none" d="&#xA;M335.717377,361.809082 &#xA;&#x9;C339.383881,357.567657 343.549561,356.359528 348.424316,358.462036 &#xA;&#x9;C353.928711,360.836121 354.547058,365.682739 354.680359,371.492981 &#xA;&#x9;C349.747589,371.492981 345.041748,371.492981 340.198578,371.492981 &#xA;&#x9;C341.353210,376.547791 343.844940,377.688019 347.048859,375.659058 &#xA;&#x9;C348.914429,374.477631 351.299652,374.116760 354.348541,373.082123 &#xA;&#x9;C352.319122,379.407806 348.838135,381.811523 343.906738,381.543091 &#xA;&#x9;C338.867310,381.268829 334.338470,378.199219 333.968628,373.580383 &#xA;&#x9;C333.667725,369.822937 334.932770,365.940063 335.717377,361.809082 &#xA;M342.005920,363.088745 &#xA;&#x9;C341.277252,364.176849 340.548615,365.264954 339.418579,366.952423 &#xA;&#x9;C342.958130,366.952423 345.514587,366.952423 348.135193,366.952423 &#xA;&#x9;C348.144531,362.916107 345.785736,362.463989 342.005920,363.088745 &#xA;z"/>
  <path fill="#DC352E" stroke="none" d="&#xA;M54.803837,365.294983 &#xA;&#x9;C54.016163,362.881287 53.365612,360.844635 52.674114,358.679779 &#xA;&#x9;C57.266144,357.063080 59.649860,358.157043 60.424149,363.020905 &#xA;&#x9;C60.882236,365.898499 62.414043,368.605164 64.033867,372.903412 &#xA;&#x9;C65.392632,368.977020 66.517159,366.248505 67.272202,363.421326 &#xA;&#x9;C68.355377,359.365479 70.194206,356.759857 75.502922,358.544922 &#xA;&#x9;C72.225395,367.559875 69.243942,376.741760 65.422569,385.559631 &#xA;&#x9;C64.503151,387.681244 60.959503,389.121948 58.331970,389.927155 &#xA;&#x9;C55.299339,390.856506 53.055294,389.591644 53.964413,385.719971 &#xA;&#x9;C60.645477,384.082275 61.555050,382.270874 58.947338,375.823944 &#xA;&#x9;C57.583252,372.451538 56.274632,369.056732 54.803837,365.294983 &#xA;z"/>
  <path fill="#DC352D" stroke="none" d="&#xA;M457.568726,362.948303 &#xA;&#x9;C457.648895,369.001617 457.648895,374.641998 457.648895,380.712433 &#xA;&#x9;C457.543701,380.739655 456.900055,381.131622 456.387512,381.002655 &#xA;&#x9;C452.678253,380.069519 449.179718,380.451538 445.412231,381.324799 &#xA;&#x9;C442.105072,382.091339 438.724518,380.473969 437.726379,376.587616 &#xA;&#x9;C436.716614,372.655945 438.159088,369.655945 442.123993,368.341919 &#xA;&#x9;C444.308319,367.618011 446.688599,367.487000 448.876038,366.769928 &#xA;&#x9;C449.723297,366.492218 450.282135,365.334534 450.972351,364.577728 &#xA;&#x9;C450.162506,363.986206 449.401794,363.006165 448.531067,362.896088 &#xA;&#x9;C447.291107,362.739258 445.955200,363.154541 444.687775,363.445343 &#xA;&#x9;C442.712982,363.898499 440.761322,364.452393 438.529022,364.331604 &#xA;&#x9;C439.369141,360.077667 441.875488,358.000977 445.579254,357.646912 &#xA;&#x9;C450.321259,357.193573 455.024902,357.251007 457.568726,362.948303 &#xA;M448.157349,376.754791 &#xA;&#x9;C449.393280,374.892914 450.629242,373.031036 451.865173,371.169159 &#xA;&#x9;C451.243134,370.608612 450.621124,370.048035 449.999084,369.487488 &#xA;&#x9;C447.932068,371.139526 445.865051,372.791565 443.798004,374.443573 &#xA;&#x9;C444.983124,375.250214 446.168243,376.056824 448.157349,376.754791 &#xA;z"/>
  <path fill="#DD3730" stroke="none" d="&#xA;M108.140045,379.891296 &#xA;&#x9;C106.810074,372.804565 105.819687,365.887787 104.739540,358.344147 &#xA;&#x9;C107.681633,358.214355 109.387543,358.139099 111.858925,358.030090 &#xA;&#x9;C111.858925,362.847595 111.510651,367.326263 112.031029,371.701630 &#xA;&#x9;C112.238029,373.442139 114.368172,374.953888 115.622810,376.569763 &#xA;&#x9;C117.111359,375.068573 119.651237,373.713379 119.883965,372.037750 &#xA;&#x9;C120.491310,367.664856 120.088455,363.151642 120.088455,358.383728 &#xA;&#x9;C122.528725,358.383728 124.247055,358.383728 126.129913,358.383728 &#xA;&#x9;C126.237190,359.469727 126.413002,360.444427 126.416908,361.419830 &#xA;&#x9;C126.442131,367.716827 126.429810,374.014008 126.429810,381.074463 &#xA;&#x9;C120.238106,380.724976 114.358864,380.393097 108.140045,379.891296 &#xA;z"/>
  <path fill="#DC322B" stroke="none" d="&#xA;M90.638672,381.425629 &#xA;&#x9;C82.794586,380.842407 79.699249,378.615021 78.060226,372.711395 &#xA;&#x9;C76.761894,368.034912 78.649475,362.598816 82.421715,359.920685 &#xA;&#x9;C86.814796,356.801819 91.323402,356.638184 95.905663,359.369934 &#xA;&#x9;C100.487656,362.101471 101.717728,366.494751 101.066856,371.372253 &#xA;&#x9;C100.301254,377.109589 96.778656,380.455658 90.638672,381.425629 &#xA;M90.378654,376.338165 &#xA;&#x9;C94.514061,374.180481 95.652168,371.027588 94.317909,366.556763 &#xA;&#x9;C93.355324,363.331390 90.986938,361.838593 88.384911,363.126465 &#xA;&#x9;C86.451454,364.083344 84.664627,366.775085 84.218178,368.978851 &#xA;&#x9;C83.444374,372.798492 85.280228,375.716553 90.378654,376.338165 &#xA;z"/>
  <path fill="#DC322A" stroke="none" d="&#xA;M365.686615,368.303650 &#xA;&#x9;C365.648071,372.718353 365.648071,376.671173 365.648071,380.821838 &#xA;&#x9;C363.422302,380.821838 361.810486,380.821838 359.852051,380.821838 &#xA;&#x9;C359.852051,373.318054 359.852051,365.943237 359.852051,357.697235 &#xA;&#x9;C364.363220,359.906067 368.496338,358.388184 372.802673,357.703461 &#xA;&#x9;C376.293610,357.148407 379.478241,359.362274 379.721680,363.300049 &#xA;&#x9;C380.076752,369.042999 379.812897,374.824280 379.812897,380.777649 &#xA;&#x9;C377.599091,380.777649 375.850403,380.777649 373.682281,380.777649 &#xA;&#x9;C373.682281,376.566956 373.816589,372.598145 373.629730,368.644501 &#xA;&#x9;C373.525024,366.428345 374.799530,363.338043 370.873840,362.808777 &#xA;&#x9;C366.974823,362.283081 366.016205,364.706970 365.686615,368.303650 &#xA;z"/>
  <path fill="#DC3129" stroke="none" d="&#xA;M249.495728,370.829681 &#xA;&#x9;C249.811142,373.788361 249.923340,377.145447 253.296005,376.349213 &#xA;&#x9;C255.142975,375.913208 257.328461,373.047455 257.685425,370.987000 &#xA;&#x9;C258.378143,366.988495 257.888092,362.785065 257.888092,358.375641 &#xA;&#x9;C260.093292,358.375641 261.812286,358.375641 263.835785,358.375641 &#xA;&#x9;C263.835785,365.851654 263.835785,373.219849 263.835785,380.095337 &#xA;&#x9;C259.125793,380.570496 254.718597,381.375610 250.315079,381.356110 &#xA;&#x9;C246.073410,381.337311 243.538116,378.422943 243.257782,374.354187 &#xA;&#x9;C242.896683,369.112976 243.169876,363.828064 243.169876,358.321838 &#xA;&#x9;C245.399017,358.321838 247.150620,358.321838 249.463394,358.321838 &#xA;&#x9;C249.463394,362.440002 249.463394,366.397339 249.495728,370.829681 &#xA;z"/>
  <path fill="#DC342D" stroke="none" d="&#xA;M512.121399,358.969971 &#xA;&#x9;C513.297241,360.511444 514.818604,361.814270 514.884033,363.186493 &#xA;&#x9;C515.159607,368.966583 515.000610,374.767365 515.000610,380.792236 &#xA;&#x9;C512.976196,380.792236 511.226349,380.792236 508.906708,380.792236 &#xA;&#x9;C508.906708,375.933685 509.151215,371.293488 508.758362,366.707825 &#xA;&#x9;C508.639832,365.324463 506.470947,362.870300 505.731903,363.040283 &#xA;&#x9;C504.080078,363.420105 501.678528,364.975677 501.462036,366.348663 &#xA;&#x9;C500.744812,370.898041 500.860260,375.578644 500.631653,380.768097 &#xA;&#x9;C498.878723,380.849915 497.180481,380.929199 495.157593,381.023651 &#xA;&#x9;C495.157593,373.382294 495.157593,366.131470 495.157593,358.844757 &#xA;&#x9;C495.368744,358.660370 495.609375,358.269501 495.839874,358.275391 &#xA;&#x9;C501.159668,358.411926 506.478363,358.591614 512.121399,358.969971 &#xA;z"/>
  <path fill="#DC352E" stroke="none" d="&#xA;M219.651550,378.791992 &#xA;&#x9;C213.794327,382.286499 208.135910,382.228821 204.591431,378.887024 &#xA;&#x9;C201.340424,375.821930 200.112701,367.989990 202.164352,363.404236 &#xA;&#x9;C203.939896,359.435638 208.991989,356.926392 213.908783,357.571106 &#xA;&#x9;C217.961578,358.102478 220.438950,360.262024 222.008026,364.898285 &#xA;&#x9;C219.371628,365.329407 216.574326,368.197144 214.827866,363.514252 &#xA;&#x9;C214.739471,363.277252 214.232620,362.973846 214.025574,363.038330 &#xA;&#x9;C212.149124,363.622833 208.714340,364.249725 208.700363,364.925568 &#xA;&#x9;C208.625916,368.523407 208.564529,372.603333 210.200439,375.581665 &#xA;&#x9;C211.252808,377.497620 214.800766,376.692444 215.913757,373.494568 &#xA;&#x9;C216.061096,373.071228 216.528656,372.759308 216.952591,372.276550 &#xA;&#x9;C218.550568,372.576019 220.160904,372.877808 222.654678,373.345123 &#xA;&#x9;C221.622513,375.304047 220.768402,376.925110 219.651550,378.791992 &#xA;z"/>
  <path fill="#DD3831" stroke="none" d="&#xA;M388.150574,352.374573 &#xA;&#x9;C389.567627,351.548065 390.661530,350.916351 392.204987,350.024994 &#xA;&#x9;C392.401825,352.730865 392.565979,354.987701 392.653687,356.193787 &#xA;&#x9;C394.440857,358.042084 396.543243,359.258911 396.560638,360.504761 &#xA;&#x9;C396.577850,361.740540 394.495178,363.005615 392.552277,365.099976 &#xA;&#x9;C392.552277,366.808563 392.318176,369.810455 392.666077,372.743286 &#xA;&#x9;C392.807678,373.936890 394.229797,374.968811 395.038940,376.096130 &#xA;&#x9;C395.695404,377.010712 396.752319,377.938812 396.793182,378.896729 &#xA;&#x9;C396.824493,379.629700 395.686462,380.808044 394.826935,381.117950 &#xA;&#x9;C390.088928,382.825867 386.644653,380.443054 386.417389,375.377075 &#xA;&#x9;C386.290863,372.556976 386.546936,369.708893 386.259857,366.911438 &#xA;&#x9;C386.117828,365.527313 385.074982,364.252808 384.554840,362.884918 &#xA;&#x9;C384.124298,361.752716 383.256989,360.278687 383.640900,359.440765 &#xA;&#x9;C384.750397,357.019257 386.393707,354.842346 388.150574,352.374573 &#xA;z"/>
  <path fill="#DC342D" stroke="none" d="&#xA;M288.995911,366.360321 &#xA;&#x9;C289.000519,368.800720 288.724304,370.850494 289.114380,372.764496 &#xA;&#x9;C289.366516,374.001526 290.625031,375.019653 291.374481,376.173615 &#xA;&#x9;C291.930389,377.029572 292.854950,377.994446 292.768646,378.822510 &#xA;&#x9;C292.679993,379.672821 291.715454,380.815887 290.870148,381.138092 &#xA;&#x9;C286.815613,382.683533 283.080719,380.433136 282.659821,376.151611 &#xA;&#x9;C282.368500,373.188416 282.698883,370.159912 282.348755,367.208374 &#xA;&#x9;C282.169830,365.699982 281.061005,364.314880 280.456787,362.839508 &#xA;&#x9;C280.049194,361.844269 279.185730,360.380066 279.560730,359.826660 &#xA;&#x9;C281.941193,356.313751 284.609772,352.996124 287.753265,348.865234 &#xA;&#x9;C289.927765,353.278351 287.170959,358.103668 292.453735,359.099152 &#xA;&#x9;C291.915619,360.412170 291.447662,361.760132 290.817139,363.027191 &#xA;&#x9;C290.313232,364.039886 289.611542,364.954163 288.995911,366.360321 &#xA;z"/>
  <path fill="#DD3932" stroke="none" d="&#xA;M552.037415,366.440094 &#xA;&#x9;C551.689941,371.370667 551.405762,375.835663 551.088562,380.818878 &#xA;&#x9;C549.370117,380.900085 547.647705,380.981476 545.561401,381.080048 &#xA;&#x9;C545.561401,373.357483 545.561401,365.983795 545.561401,358.396118 &#xA;&#x9;C550.145447,358.187775 554.522827,357.988831 559.481018,357.763458 &#xA;&#x9;C559.146729,359.955078 558.908936,361.513702 558.870056,361.768646 &#xA;&#x9;C555.997681,363.553284 554.049194,364.763916 552.037415,366.440094 &#xA;z"/>
  <path fill="#DC352D" stroke="none" d="&#xA;M226.061249,361.354767 &#xA;&#x9;C226.351334,360.018280 226.613388,358.388184 226.933548,358.376678 &#xA;&#x9;C231.543915,358.211182 236.162094,358.263489 240.778397,358.263489 &#xA;&#x9;C241.044464,358.857574 241.310516,359.451660 241.576584,360.045746 &#xA;&#x9;C239.904663,361.121155 238.044815,361.994537 236.612274,363.327240 &#xA;&#x9;C235.098679,364.735352 233.193848,366.439941 232.871048,368.264648 &#xA;&#x9;C232.157791,372.296478 232.330322,376.485016 232.131958,380.817932 &#xA;&#x9;C230.118149,380.817932 228.355469,380.817932 226.060242,380.817932 &#xA;&#x9;C226.060242,374.363647 226.060242,368.088745 226.061249,361.354767 &#xA;z"/>
  <path fill="#DD3730" stroke="none" d="&#xA;M175.124207,358.654297 &#xA;&#x9;C175.162247,361.829590 174.606339,363.939301 170.712250,363.589966 &#xA;&#x9;C169.795776,363.507751 167.864273,366.503113 167.672668,368.224335 &#xA;&#x9;C167.218033,372.308136 167.526398,376.476868 167.526398,380.789764 &#xA;&#x9;C165.186813,380.789764 163.431580,380.789764 161.405640,380.789764 &#xA;&#x9;C161.405640,373.281677 161.405640,366.027954 161.405640,358.371429 &#xA;&#x9;C165.962570,358.371429 170.442261,358.371429 175.124207,358.654297 &#xA;z"/>
  <path fill="#DC322B" stroke="none" d="&#xA;M146.391113,360.504944 &#xA;&#x9;C145.420441,361.694458 144.485291,363.422424 143.830093,363.322113 &#xA;&#x9;C138.939377,362.573242 138.669037,366.049255 138.433334,369.167175 &#xA;&#x9;C138.148407,372.936127 138.365799,376.743042 138.365799,380.778259 &#xA;&#x9;C136.035461,380.778259 134.268051,380.778259 132.168152,380.778259 &#xA;&#x9;C132.168152,373.348328 132.168152,365.979340 132.168152,358.857788 &#xA;&#x9;C135.989105,358.406891 139.654251,357.753021 143.330948,357.679779 &#xA;&#x9;C144.388931,357.658691 145.480255,359.311432 146.391113,360.504944 &#xA;z"/>
  <path fill="#DD3831" stroke="none" d="&#xA;M270.369080,380.450195 &#xA;&#x9;C270.082397,373.004578 270.082397,365.921448 270.082397,358.447693 &#xA;&#x9;C271.901978,358.447693 273.595123,358.447693 275.623169,358.447693 &#xA;&#x9;C275.623169,365.802856 275.623169,373.133911 275.623169,380.812683 &#xA;&#x9;C273.833618,380.812683 272.244690,380.812683 270.369080,380.450195 &#xA;z"/>
  <path fill="#DF443E" stroke="none" d="&#xA;M269.806488,352.081757 &#xA;&#x9;C271.454285,350.684326 273.098785,349.656189 275.702576,348.028290 &#xA;&#x9;C275.702576,351.447296 275.702576,353.014008 275.702576,354.987976 &#xA;&#x9;C273.545776,354.403290 270.049500,357.923859 269.806488,352.081757 &#xA;z"/>
  <path fill="#FEF8F7" stroke="none" d="&#xA;M96.481331,270.414734 &#xA;&#x9;C98.490059,266.968933 100.319572,263.842560 102.908607,259.418274 &#xA;&#x9;C104.434853,269.451355 105.749779,278.095276 107.130211,287.169800 &#xA;&#x9;C100.056755,287.169800 93.539574,287.169800 85.977104,287.169800 &#xA;&#x9;C89.698364,281.246185 93.000237,275.990173 96.481331,270.414734 &#xA;z"/>
  <path fill="#FDF5F4" stroke="none" d="&#xA;M424.762329,362.954346 &#xA;&#x9;C428.315491,365.914215 429.431946,371.620697 426.824249,374.402435 &#xA;&#x9;C425.715393,375.585297 421.815216,376.239868 421.560181,375.789276 &#xA;&#x9;C420.115509,373.237183 418.653992,370.284882 418.625183,367.454285 &#xA;&#x9;C418.595398,364.522034 420.717773,362.254089 424.762329,362.954346 &#xA;z"/>
  <path fill="#FCEDEC" stroke="none" d="&#xA;M189.700470,363.201599 &#xA;&#x9;C190.550919,364.386719 191.005768,365.369507 191.698029,366.865295 &#xA;&#x9;C188.607742,366.865295 186.082321,366.865295 183.366272,366.865295 &#xA;&#x9;C183.450409,362.588013 186.109680,362.395538 189.700470,363.201599 &#xA;z"/>
  <path fill="#FCEDEC" stroke="none" d="&#xA;M530.952637,367.212463 &#xA;&#x9;C529.067383,367.214600 527.629333,367.214600 526.191345,367.214600 &#xA;&#x9;C525.966492,366.695251 525.741699,366.175903 525.516846,365.656525 &#xA;&#x9;C527.161621,364.680847 528.726318,363.201172 530.481812,362.922333 &#xA;&#x9;C531.501648,362.760345 532.827820,364.526276 534.016113,365.424683 &#xA;&#x9;C533.144043,366.019897 532.271973,366.615112 530.952637,367.212463 &#xA;z"/>
  <path fill="#FCEDEC" stroke="none" d="&#xA;M342.414124,362.962463 &#xA;&#x9;C345.785736,362.463989 348.144531,362.916107 348.135193,366.952423 &#xA;&#x9;C345.514587,366.952423 342.958130,366.952423 339.418579,366.952423 &#xA;&#x9;C340.548615,365.264954 341.277252,364.176849 342.414124,362.962463 &#xA;z"/>
  <path fill="#FCEDEC" stroke="none" d="&#xA;M447.755371,376.809113 &#xA;&#x9;C446.168243,376.056824 444.983124,375.250214 443.798035,374.443604 &#xA;&#x9;C445.865051,372.791565 447.932068,371.139526 449.999084,369.487488 &#xA;&#x9;C450.621124,370.048035 451.243134,370.608612 451.865173,371.169159 &#xA;&#x9;C450.629242,373.031036 449.393280,374.892914 447.755371,376.809113 &#xA;z"/>
  <path fill="#FDF3F2" stroke="none" d="&#xA;M89.964653,376.373657 &#xA;&#x9;C85.280228,375.716553 83.444374,372.798492 84.218178,368.978851 &#xA;&#x9;C84.664627,366.775085 86.451454,364.083344 88.384911,363.126465 &#xA;&#x9;C90.986938,361.838593 93.355324,363.331390 94.317909,366.556763 &#xA;&#x9;C95.652168,371.027588 94.514061,374.180481 89.964653,376.373657 &#xA;z"/>
</svg>